<svg xmlns="http://www.w3.org/2000/svg" xmlns:xlink="http://www.w3.org/1999/xlink" width="500" zoomAndPan="magnify" viewBox="0 0 375 374.999991" height="500" preserveAspectRatio="xMidYMid meet" version="1.0"><defs><clipPath id="2ba67d5db1"><path d="M 2 68.921875 L 373 68.921875 L 373 324.671875 L 2 324.671875 Z M 2 68.921875 " clip-rule="nonzero"/></clipPath></defs><g clip-path="url(#2ba67d5db1)"><path fill="#ffffff" d="M 327.539062 313.191406 L 47.460938 313.191406 C 30.820312 313.191406 17 301.0625 14.273438 285.160156 L 360.691406 285.160156 C 358.035156 301.0625 344.179688 313.191406 327.539062 313.191406 Z M 35.511719 87.324219 C 35.511719 83.285156 38.664062 80.097656 42.703125 80.097656 L 332.230469 80.097656 C 336.269531 80.097656 339.453125 83.285156 339.453125 87.324219 L 339.453125 273.855469 L 35.511719 273.855469 Z M 366.765625 273.917969 L 350.714844 273.917969 L 350.714844 87.324219 C 350.714844 77.171875 342.472656 68.890625 332.265625 68.890625 L 42.703125 68.890625 C 32.558594 68.890625 24.285156 77.171875 24.285156 87.324219 L 24.285156 273.855469 L 8.234375 273.855469 C 5.117188 273.917969 2.621094 276.417969 2.621094 279.539062 C 2.621094 304.285156 22.742188 324.429688 47.460938 324.429688 L 327.539062 324.429688 C 352.257812 324.429688 372.378906 304.285156 372.378906 279.539062 C 372.378906 276.417969 369.917969 273.917969 366.765625 273.917969 " fill-opacity="1" fill-rule="nonzero"/></g><path fill="#ffffff" d="M 307.316406 248.878906 L 67.683594 248.878906 L 67.683594 105.433594 L 307.285156 105.433594 L 307.285156 248.878906 Z M 312.929688 94.226562 L 62.070312 94.226562 C 58.953125 94.226562 56.457031 96.722656 56.457031 99.847656 L 56.457031 254.496094 C 56.457031 257.621094 58.953125 260.117188 62.070312 260.117188 L 312.863281 260.117188 C 315.984375 260.117188 318.476562 257.621094 318.476562 254.496094 L 318.476562 99.847656 C 318.542969 96.722656 315.984375 94.226562 312.929688 94.226562 " fill-opacity="1" fill-rule="nonzero"/><path fill="#ffffff" d="M 171.710938 221.699219 C 172.367188 221.929688 172.957031 222.03125 173.582031 222.03125 C 175.878906 222.03125 178.011719 220.582031 178.832031 218.285156 L 206.375 139.742188 C 207.425781 136.785156 205.851562 133.597656 202.992188 132.578125 C 200.039062 131.527344 196.855469 133.101562 195.804688 135.996094 L 168.265625 214.535156 C 167.277344 217.460938 168.855469 220.648438 171.710938 221.699219 Z M 259.257812 178.324219 L 221.769531 208.0625 C 219.339844 209.96875 218.914062 213.484375 220.851562 215.917969 C 221.933594 217.296875 223.609375 218.054688 225.21875 218.054688 C 226.433594 218.054688 227.648438 217.660156 228.695312 216.835938 L 271.699219 182.757812 C 273.011719 181.738281 273.832031 180.097656 273.832031 178.421875 C 273.832031 176.746094 273.046875 175.132812 271.734375 174.050781 L 226.957031 137.472656 C 224.527344 135.535156 221.015625 135.863281 219.113281 138.296875 C 217.140625 140.726562 217.503906 144.242188 219.898438 146.148438 Z M 146.304688 216.835938 C 147.351562 217.660156 148.566406 218.054688 149.78125 218.054688 C 151.457031 218.054688 153.066406 217.296875 154.148438 215.917969 C 156.085938 213.484375 155.660156 209.96875 153.230469 208.0625 L 115.742188 178.324219 L 155.101562 146.148438 C 157.496094 144.210938 157.859375 140.660156 155.886719 138.296875 C 153.953125 135.863281 150.40625 135.535156 148.042969 137.472656 L 103.265625 174.050781 C 101.953125 175.132812 101.167969 176.679688 101.167969 178.421875 C 101.167969 180.097656 101.988281 181.738281 103.332031 182.757812 L 146.304688 216.835938 " fill-opacity="1" fill-rule="nonzero"/></svg>