<svg xmlns="http://www.w3.org/2000/svg" xmlns:xlink="http://www.w3.org/1999/xlink" width="500" zoomAndPan="magnify" viewBox="0 0 375 374.999991" height="500" preserveAspectRatio="xMidYMid meet" version="1.0"><defs><g/><clipPath id="489431bfbf"><path d="M 40 6.617188 L 335 6.617188 L 335 209 L 40 209 Z M 40 6.617188 " clip-rule="nonzero"/></clipPath></defs><g fill="#ffffff" fill-opacity="1"><g transform="translate(70.759026, 297.852864)"><g><path d="M 22.8125 0.09375 L 23.546875 -4.453125 C 24.847656 -4.515625 25.773438 -4.664062 26.328125 -4.90625 C 26.878906 -5.15625 27.15625 -5.5625 27.15625 -6.125 C 27.15625 -6.800781 26.753906 -7.695312 25.953125 -8.8125 L 20.390625 -16.40625 C 20.085938 -16.039062 19.269531 -15.035156 17.9375 -13.390625 C 16.601562 -11.753906 15.535156 -10.316406 14.734375 -9.078125 C 13.929688 -7.847656 13.53125 -6.984375 13.53125 -6.484375 C 13.53125 -5.804688 13.773438 -5.34375 14.265625 -5.09375 C 14.765625 -4.851562 15.664062 -4.703125 16.96875 -4.640625 L 17.25 -4.078125 L 16.59375 0.375 C 15.851562 0.3125 14.539062 0.234375 12.65625 0.140625 C 10.769531 0.046875 9.054688 0 7.515625 0 C 5.960938 0 4.503906 0.03125 3.140625 0.09375 C 1.785156 0.15625 0.894531 0.21875 0.46875 0.28125 L 0.09375 -0.375 L 0.828125 -4.734375 C 2.003906 -5.347656 3.039062 -6.117188 3.9375 -7.046875 C 4.832031 -7.972656 6.546875 -9.921875 9.078125 -12.890625 L 16.5 -21.6875 L 10.203125 -30.40625 C 8.472656 -32.875 6.972656 -34.554688 5.703125 -35.453125 C 4.429688 -36.347656 2.75 -36.984375 0.65625 -37.359375 L 0.46875 -37.828125 L 1.015625 -42.921875 C 1.640625 -42.921875 2.9375 -42.890625 4.90625 -42.828125 C 6.882812 -42.765625 9.171875 -42.734375 11.765625 -42.734375 C 14.179688 -42.734375 16.515625 -42.78125 18.765625 -42.875 C 21.023438 -42.96875 22.460938 -43.046875 23.078125 -43.109375 L 23.453125 -42.546875 L 22.8125 -37.921875 C 20.457031 -37.921875 19.28125 -37.332031 19.28125 -36.15625 C 19.28125 -35.539062 19.445312 -34.921875 19.78125 -34.296875 C 20.125 -33.679688 20.640625 -32.910156 21.328125 -31.984375 L 25.21875 -26.515625 L 29.671875 -32.265625 C 30.472656 -33.367188 31.039062 -34.195312 31.375 -34.75 C 31.71875 -35.3125 31.890625 -35.875 31.890625 -36.4375 C 31.890625 -36.925781 31.65625 -37.25 31.1875 -37.40625 C 30.726562 -37.5625 29.847656 -37.640625 28.546875 -37.640625 L 28.359375 -38.015625 L 28.921875 -42.734375 L 37.078125 -42.734375 C 38.804688 -42.734375 40.410156 -42.765625 41.890625 -42.828125 C 43.378906 -42.890625 44.375 -42.953125 44.875 -43.015625 L 45.140625 -42.546875 L 44.59375 -37.640625 C 41.9375 -36.273438 39.304688 -33.957031 36.703125 -30.6875 L 29.296875 -21.234375 L 36.53125 -11.40625 C 38.132812 -9.238281 39.597656 -7.660156 40.921875 -6.671875 C 42.253906 -5.679688 43.785156 -5.125 45.515625 -5 L 45.796875 -4.640625 L 45.046875 0.1875 C 44.367188 0.1875 43.132812 0.15625 41.34375 0.09375 C 39.550781 0.03125 37.789062 0 36.0625 0 C 34.582031 0 32.3125 0.078125 29.25 0.234375 C 26.1875 0.390625 24.160156 0.5 23.171875 0.5625 Z M 22.8125 0.09375 "/></g></g></g><g fill="#ffffff" fill-opacity="1"><g transform="translate(116.735211, 297.852864)"><g><path d="M 22.8125 0.09375 L 23.546875 -4.453125 C 24.847656 -4.515625 25.773438 -4.664062 26.328125 -4.90625 C 26.878906 -5.15625 27.15625 -5.5625 27.15625 -6.125 C 27.15625 -6.800781 26.753906 -7.695312 25.953125 -8.8125 L 20.390625 -16.40625 C 20.085938 -16.039062 19.269531 -15.035156 17.9375 -13.390625 C 16.601562 -11.753906 15.535156 -10.316406 14.734375 -9.078125 C 13.929688 -7.847656 13.53125 -6.984375 13.53125 -6.484375 C 13.53125 -5.804688 13.773438 -5.34375 14.265625 -5.09375 C 14.765625 -4.851562 15.664062 -4.703125 16.96875 -4.640625 L 17.25 -4.078125 L 16.59375 0.375 C 15.851562 0.3125 14.539062 0.234375 12.65625 0.140625 C 10.769531 0.046875 9.054688 0 7.515625 0 C 5.960938 0 4.503906 0.03125 3.140625 0.09375 C 1.785156 0.15625 0.894531 0.21875 0.46875 0.28125 L 0.09375 -0.375 L 0.828125 -4.734375 C 2.003906 -5.347656 3.039062 -6.117188 3.9375 -7.046875 C 4.832031 -7.972656 6.546875 -9.921875 9.078125 -12.890625 L 16.5 -21.6875 L 10.203125 -30.40625 C 8.472656 -32.875 6.972656 -34.554688 5.703125 -35.453125 C 4.429688 -36.347656 2.75 -36.984375 0.65625 -37.359375 L 0.46875 -37.828125 L 1.015625 -42.921875 C 1.640625 -42.921875 2.9375 -42.890625 4.90625 -42.828125 C 6.882812 -42.765625 9.171875 -42.734375 11.765625 -42.734375 C 14.179688 -42.734375 16.515625 -42.78125 18.765625 -42.875 C 21.023438 -42.96875 22.460938 -43.046875 23.078125 -43.109375 L 23.453125 -42.546875 L 22.8125 -37.921875 C 20.457031 -37.921875 19.28125 -37.332031 19.28125 -36.15625 C 19.28125 -35.539062 19.445312 -34.921875 19.78125 -34.296875 C 20.125 -33.679688 20.640625 -32.910156 21.328125 -31.984375 L 25.21875 -26.515625 L 29.671875 -32.265625 C 30.472656 -33.367188 31.039062 -34.195312 31.375 -34.75 C 31.71875 -35.3125 31.890625 -35.875 31.890625 -36.4375 C 31.890625 -36.925781 31.65625 -37.25 31.1875 -37.40625 C 30.726562 -37.5625 29.847656 -37.640625 28.546875 -37.640625 L 28.359375 -38.015625 L 28.921875 -42.734375 L 37.078125 -42.734375 C 38.804688 -42.734375 40.410156 -42.765625 41.890625 -42.828125 C 43.378906 -42.890625 44.375 -42.953125 44.875 -43.015625 L 45.140625 -42.546875 L 44.59375 -37.640625 C 41.9375 -36.273438 39.304688 -33.957031 36.703125 -30.6875 L 29.296875 -21.234375 L 36.53125 -11.40625 C 38.132812 -9.238281 39.597656 -7.660156 40.921875 -6.671875 C 42.253906 -5.679688 43.785156 -5.125 45.515625 -5 L 45.796875 -4.640625 L 45.046875 0.1875 C 44.367188 0.1875 43.132812 0.15625 41.34375 0.09375 C 39.550781 0.03125 37.789062 0 36.0625 0 C 34.582031 0 32.3125 0.078125 29.25 0.234375 C 26.1875 0.390625 24.160156 0.5 23.171875 0.5625 Z M 22.8125 0.09375 "/></g></g></g><g fill="#ffffff" fill-opacity="1"><g transform="translate(162.711395, 297.852864)"><g><path d="M 22.15625 1.109375 C 16.101562 1.109375 11.3125 -0.957031 7.78125 -5.09375 C 4.257812 -9.238281 2.5 -14.863281 2.5 -21.96875 C 2.5 -26.976562 3.425781 -31.394531 5.28125 -35.21875 C 7.132812 -39.050781 9.726562 -42.019531 13.0625 -44.125 C 16.40625 -46.226562 20.238281 -47.28125 24.5625 -47.28125 C 30.625 -47.28125 35.414062 -45.222656 38.9375 -41.109375 C 42.457031 -37.003906 44.21875 -31.425781 44.21875 -24.375 C 44.21875 -19.3125 43.304688 -14.863281 41.484375 -11.03125 C 39.660156 -7.195312 37.078125 -4.210938 33.734375 -2.078125 C 30.398438 0.046875 26.539062 1.109375 22.15625 1.109375 Z M 23.734375 -10.75 C 27.804688 -10.75 31 -11.769531 33.3125 -13.8125 C 35.632812 -15.851562 36.796875 -18.664062 36.796875 -22.25 C 36.796875 -26.082031 35.53125 -29.15625 33 -31.46875 C 30.46875 -33.789062 27.039062 -34.953125 22.71875 -34.953125 C 18.695312 -34.953125 15.539062 -33.914062 13.25 -31.84375 C 10.96875 -29.769531 9.828125 -26.910156 9.828125 -23.265625 C 9.828125 -19.429688 11.078125 -16.382812 13.578125 -14.125 C 16.078125 -11.875 19.460938 -10.75 23.734375 -10.75 Z M 23.734375 -10.75 "/></g></g></g><g fill="#ffffff" fill-opacity="1"><g transform="translate(209.336426, 297.852864)"><g><path d="M 29.578125 -5 C 31.117188 -5.3125 32.210938 -5.867188 32.859375 -6.671875 C 33.515625 -7.472656 33.867188 -8.648438 33.921875 -10.203125 L 34.203125 -26.234375 C 34.203125 -28.953125 33.707031 -30.972656 32.71875 -32.296875 C 31.726562 -33.628906 30.21875 -34.296875 28.1875 -34.296875 C 25.832031 -34.296875 23.113281 -33.125 20.03125 -30.78125 C 19.40625 -19.65625 19.09375 -12.703125 19.09375 -9.921875 C 19.09375 -8.378906 19.289062 -7.296875 19.6875 -6.671875 C 20.09375 -6.054688 20.820312 -5.75 21.875 -5.75 L 24.375 -5.84375 L 24.5625 -5.46875 L 23.640625 0.28125 C 22.960938 0.21875 21.679688 0.15625 19.796875 0.09375 C 17.910156 0.03125 15.945312 0 13.90625 0 C 11.925781 0 9.773438 0.078125 7.453125 0.234375 C 5.140625 0.390625 3.644531 0.5 2.96875 0.5625 L 3.703125 -5.1875 C 5.492188 -5.375 6.742188 -5.851562 7.453125 -6.625 C 8.171875 -7.394531 8.53125 -8.644531 8.53125 -10.375 L 8.53125 -30.03125 C 8.53125 -32.195312 8.203125 -33.664062 7.546875 -34.4375 C 6.898438 -35.207031 5.710938 -35.59375 3.984375 -35.59375 L 2.78125 -35.59375 L 2.40625 -36.0625 L 2.875 -40.875 C 6.394531 -41.375 9.867188 -41.960938 13.296875 -42.640625 C 16.734375 -43.316406 18.945312 -43.75 19.9375 -43.9375 L 20.671875 -43.015625 C 20.546875 -42.640625 20.359375 -41.800781 20.109375 -40.5 C 19.867188 -39.207031 19.71875 -37.914062 19.65625 -36.625 L 20.03125 -36.25 C 21.9375 -37.914062 24.140625 -39.597656 26.640625 -41.296875 C 29.148438 -42.992188 30.960938 -43.84375 32.078125 -43.84375 C 36.460938 -43.84375 39.875 -42.789062 42.3125 -40.6875 C 44.757812 -38.59375 45.984375 -35.660156 45.984375 -31.890625 C 45.984375 -30.960938 45.734375 -27.71875 45.234375 -22.15625 C 44.617188 -15.851562 44.3125 -11.804688 44.3125 -10.015625 C 44.3125 -8.410156 44.539062 -7.265625 45 -6.578125 C 45.46875 -5.898438 46.195312 -5.5625 47.1875 -5.5625 C 47.800781 -5.5625 48.382812 -5.59375 48.9375 -5.65625 C 49.5 -5.71875 49.875 -5.75 50.0625 -5.75 L 50.25 -5.375 L 49.40625 0.28125 C 48.664062 0.21875 47.320312 0.15625 45.375 0.09375 C 43.425781 0.03125 41.4375 0 39.40625 0 C 37.914062 0 36.007812 0.109375 33.6875 0.328125 C 31.375 0.546875 29.847656 0.679688 29.109375 0.734375 Z M 29.578125 -5 "/></g></g></g><g fill="#ffffff" fill-opacity="1"><g transform="translate(261.430393, 297.852864)"><g><path d="M 23.359375 1.109375 C 16.867188 1.109375 11.753906 -0.789062 8.015625 -4.59375 C 4.273438 -8.394531 2.40625 -13.597656 2.40625 -20.203125 C 2.40625 -24.660156 3.363281 -28.679688 5.28125 -32.265625 C 7.195312 -35.847656 9.820312 -38.671875 13.15625 -40.734375 C 16.5 -42.804688 20.207031 -43.84375 24.28125 -43.84375 C 34.664062 -43.84375 39.859375 -38.59375 39.859375 -28.09375 C 39.859375 -26.238281 39.644531 -24.503906 39.21875 -22.890625 L 38.09375 -21.78125 L 14.09375 -21.78125 C 14.15625 -17.269531 15.21875 -13.820312 17.28125 -11.4375 C 19.351562 -9.0625 22.242188 -7.875 25.953125 -7.875 C 29.171875 -7.875 32.847656 -8.800781 36.984375 -10.65625 L 37.640625 -10.296875 L 39.125 -5.75 C 36.832031 -4.019531 34.1875 -2.441406 31.1875 -1.015625 C 28.195312 0.398438 25.585938 1.109375 23.359375 1.109375 Z M 26.796875 -27.625 C 27.535156 -27.6875 28.007812 -27.835938 28.21875 -28.078125 C 28.4375 -28.328125 28.546875 -28.882812 28.546875 -29.75 C 28.546875 -34.332031 26.601562 -36.625 22.71875 -36.625 C 20.300781 -36.625 18.332031 -35.785156 16.8125 -34.109375 C 15.300781 -32.441406 14.394531 -30.035156 14.09375 -26.890625 Z M 26.796875 -27.625 "/></g></g></g><g fill="#ffffff" fill-opacity="1"><g transform="translate(44.782171, 357.859712)"><g><path d="M 39.6875 -31.703125 C 40.257812 -31.703125 40.785156 -31.488281 41.265625 -31.0625 C 41.742188 -30.644531 41.984375 -30.09375 41.984375 -29.40625 C 41.984375 -29.164062 41.9375 -28.910156 41.84375 -28.640625 L 32.515625 -1.359375 C 32.390625 -0.929688 32.140625 -0.601562 31.765625 -0.375 C 31.390625 -0.15625 30.992188 -0.03125 30.578125 0 C 30.148438 0 29.738281 -0.117188 29.34375 -0.359375 C 28.957031 -0.597656 28.675781 -0.941406 28.5 -1.390625 L 21.46875 -17.859375 L 14.46875 -1.390625 C 14.289062 -0.941406 14.003906 -0.597656 13.609375 -0.359375 C 13.222656 -0.117188 12.804688 0 12.359375 0 C 11.929688 -0.03125 11.535156 -0.164062 11.171875 -0.40625 C 10.816406 -0.644531 10.582031 -0.960938 10.46875 -1.359375 L 1.125 -28.640625 C 1.03125 -28.910156 0.984375 -29.164062 0.984375 -29.40625 C 0.984375 -30.0625 1.234375 -30.609375 1.734375 -31.046875 C 2.234375 -31.484375 2.769531 -31.703125 3.34375 -31.703125 C 3.820312 -31.703125 4.253906 -31.570312 4.640625 -31.3125 C 5.035156 -31.0625 5.289062 -30.722656 5.40625 -30.296875 L 13.03125 -7.71875 L 19.578125 -23.765625 C 19.753906 -24.179688 20.019531 -24.507812 20.375 -24.75 C 20.738281 -25 21.144531 -25.125 21.59375 -25.125 C 22.050781 -25.125 22.457031 -25 22.8125 -24.75 C 23.175781 -24.507812 23.445312 -24.179688 23.625 -23.765625 L 29.984375 -7.71875 L 37.5625 -30.296875 C 37.6875 -30.753906 37.941406 -31.101562 38.328125 -31.34375 C 38.722656 -31.582031 39.175781 -31.703125 39.6875 -31.703125 Z M 39.6875 -31.703125 "/></g></g></g><g fill="#ffffff" fill-opacity="1"><g transform="translate(89.069393, 357.859712)"><g><path d="M 23.9375 -12.71875 C 23.914062 -12.175781 23.691406 -11.71875 23.265625 -11.34375 C 22.847656 -10.96875 22.351562 -10.78125 21.78125 -10.78125 L 5.90625 -10.78125 C 6.113281 -8.582031 6.945312 -6.820312 8.40625 -5.5 C 9.863281 -4.175781 11.644531 -3.515625 13.75 -3.515625 C 15.195312 -3.515625 16.367188 -3.722656 17.265625 -4.140625 C 18.171875 -4.566406 18.96875 -5.109375 19.65625 -5.765625 C 20.113281 -6.035156 20.550781 -6.171875 20.96875 -6.171875 C 21.476562 -6.171875 21.90625 -5.988281 22.25 -5.625 C 22.59375 -5.269531 22.765625 -4.851562 22.765625 -4.375 C 22.765625 -3.738281 22.46875 -3.164062 21.875 -2.65625 C 21 -1.789062 19.835938 -1.054688 18.390625 -0.453125 C 16.953125 0.148438 15.484375 0.453125 13.984375 0.453125 C 11.546875 0.453125 9.398438 -0.0546875 7.546875 -1.078125 C 5.703125 -2.097656 4.273438 -3.523438 3.265625 -5.359375 C 2.265625 -7.191406 1.765625 -9.269531 1.765625 -11.59375 C 1.765625 -14.113281 2.28125 -16.328125 3.3125 -18.234375 C 4.351562 -20.148438 5.722656 -21.617188 7.421875 -22.640625 C 9.117188 -23.660156 10.941406 -24.171875 12.890625 -24.171875 C 14.816406 -24.171875 16.617188 -23.671875 18.296875 -22.671875 C 19.984375 -21.679688 21.335938 -20.316406 22.359375 -18.578125 C 23.390625 -16.835938 23.914062 -14.882812 23.9375 -12.71875 Z M 12.890625 -20.203125 C 11.210938 -20.203125 9.753906 -19.726562 8.515625 -18.78125 C 7.285156 -17.832031 6.476562 -16.367188 6.09375 -14.390625 L 19.390625 -14.390625 L 19.390625 -14.75 C 19.242188 -16.34375 18.53125 -17.648438 17.25 -18.671875 C 15.96875 -19.691406 14.515625 -20.203125 12.890625 -20.203125 Z M 12.890625 -20.203125 "/></g></g></g><g fill="#ffffff" fill-opacity="1"><g transform="translate(116.083705, 357.859712)"><g><path d="M 15.0625 -24.171875 C 17.101562 -24.171875 18.953125 -23.644531 20.609375 -22.59375 C 22.265625 -21.539062 23.5625 -20.082031 24.5 -18.21875 C 25.445312 -16.351562 25.921875 -14.25 25.921875 -11.90625 C 25.921875 -9.5625 25.445312 -7.441406 24.5 -5.546875 C 23.5625 -3.648438 22.265625 -2.175781 20.609375 -1.125 C 18.953125 -0.0703125 17.132812 0.453125 15.15625 0.453125 C 13.59375 0.453125 12.132812 0.109375 10.78125 -0.578125 C 9.425781 -1.273438 8.328125 -2.132812 7.484375 -3.15625 L 7.484375 -1.84375 C 7.484375 -1.25 7.28125 -0.738281 6.875 -0.3125 C 6.46875 0.101562 5.953125 0.3125 5.328125 0.3125 C 4.722656 0.3125 4.21875 0.109375 3.8125 -0.296875 C 3.40625 -0.703125 3.203125 -1.21875 3.203125 -1.84375 L 3.203125 -31.203125 C 3.203125 -31.835938 3.394531 -32.359375 3.78125 -32.765625 C 4.175781 -33.171875 4.691406 -33.375 5.328125 -33.375 C 5.953125 -33.375 6.46875 -33.160156 6.875 -32.734375 C 7.28125 -32.316406 7.484375 -31.804688 7.484375 -31.203125 L 7.484375 -20.203125 C 8.203125 -21.285156 9.253906 -22.21875 10.640625 -23 C 12.023438 -23.78125 13.5 -24.171875 15.0625 -24.171875 Z M 14.5625 -3.515625 C 15.945312 -3.515625 17.191406 -3.882812 18.296875 -4.625 C 19.410156 -5.363281 20.273438 -6.367188 20.890625 -7.640625 C 21.515625 -8.921875 21.828125 -10.34375 21.828125 -11.90625 C 21.828125 -13.46875 21.515625 -14.878906 20.890625 -16.140625 C 20.273438 -17.398438 19.410156 -18.390625 18.296875 -19.109375 C 17.191406 -19.835938 15.945312 -20.203125 14.5625 -20.203125 C 13.15625 -20.203125 11.894531 -19.835938 10.78125 -19.109375 C 9.664062 -18.390625 8.800781 -17.40625 8.1875 -16.15625 C 7.570312 -14.914062 7.265625 -13.5 7.265625 -11.90625 C 7.265625 -10.3125 7.570312 -8.882812 8.1875 -7.625 C 8.800781 -6.363281 9.664062 -5.363281 10.78125 -4.625 C 11.894531 -3.882812 13.15625 -3.515625 14.5625 -3.515625 Z M 14.5625 -3.515625 "/></g></g></g><g fill="#ffffff" fill-opacity="1"><g transform="translate(145.082377, 357.859712)"><g/></g></g><g fill="#ffffff" fill-opacity="1"><g transform="translate(158.882677, 357.859712)"><g><path d="M 26.46875 -31.5625 C 27.132812 -31.5625 27.675781 -31.359375 28.09375 -30.953125 C 28.507812 -30.546875 28.71875 -30.03125 28.71875 -29.40625 L 28.71875 -2.203125 C 28.6875 -1.578125 28.460938 -1.050781 28.046875 -0.625 C 27.628906 -0.207031 27.085938 0 26.421875 0 C 25.816406 0 25.296875 -0.207031 24.859375 -0.625 C 24.429688 -1.050781 24.21875 -1.578125 24.21875 -2.203125 L 24.21875 -13.890625 L 8.203125 -13.890625 L 8.203125 -2.203125 C 8.203125 -1.578125 7.976562 -1.050781 7.53125 -0.625 C 7.082031 -0.207031 6.554688 0 5.953125 0 C 5.285156 0 4.75 -0.207031 4.34375 -0.625 C 3.945312 -1.050781 3.75 -1.578125 3.75 -2.203125 L 3.75 -29.40625 C 3.75 -30 3.957031 -30.503906 4.375 -30.921875 C 4.789062 -31.347656 5.332031 -31.5625 6 -31.5625 C 6.601562 -31.5625 7.117188 -31.347656 7.546875 -30.921875 C 7.984375 -30.503906 8.203125 -30 8.203125 -29.40625 L 8.203125 -18.03125 L 24.21875 -18.03125 L 24.21875 -29.40625 C 24.21875 -30 24.441406 -30.503906 24.890625 -30.921875 C 25.335938 -31.347656 25.863281 -31.5625 26.46875 -31.5625 Z M 26.46875 -31.5625 "/></g></g></g><g fill="#ffffff" fill-opacity="1"><g transform="translate(192.61673, 357.859712)"><g><path d="M 25.5625 -11.8125 C 25.5625 -9.46875 25.035156 -7.363281 23.984375 -5.5 C 22.929688 -3.632812 21.492188 -2.175781 19.671875 -1.125 C 17.859375 -0.0703125 15.851562 0.453125 13.65625 0.453125 C 11.46875 0.453125 9.460938 -0.0703125 7.640625 -1.125 C 5.828125 -2.175781 4.394531 -3.632812 3.34375 -5.5 C 2.289062 -7.363281 1.765625 -9.46875 1.765625 -11.8125 C 1.765625 -14.15625 2.289062 -16.273438 3.34375 -18.171875 C 4.394531 -20.066406 5.828125 -21.539062 7.640625 -22.59375 C 9.460938 -23.644531 11.46875 -24.171875 13.65625 -24.171875 C 15.851562 -24.171875 17.859375 -23.644531 19.671875 -22.59375 C 21.492188 -21.539062 22.929688 -20.066406 23.984375 -18.171875 C 25.035156 -16.273438 25.5625 -14.15625 25.5625 -11.8125 Z M 21.28125 -11.8125 C 21.28125 -13.4375 20.941406 -14.882812 20.265625 -16.15625 C 19.585938 -17.4375 18.671875 -18.429688 17.515625 -19.140625 C 16.359375 -19.847656 15.070312 -20.203125 13.65625 -20.203125 C 12.25 -20.203125 10.96875 -19.847656 9.8125 -19.140625 C 8.65625 -18.429688 7.738281 -17.4375 7.0625 -16.15625 C 6.382812 -14.882812 6.046875 -13.4375 6.046875 -11.8125 C 6.046875 -10.21875 6.382812 -8.789062 7.0625 -7.53125 C 7.738281 -6.269531 8.65625 -5.285156 9.8125 -4.578125 C 10.96875 -3.867188 12.25 -3.515625 13.65625 -3.515625 C 15.070312 -3.515625 16.359375 -3.867188 17.515625 -4.578125 C 18.671875 -5.285156 19.585938 -6.269531 20.265625 -7.53125 C 20.941406 -8.789062 21.28125 -10.21875 21.28125 -11.8125 Z M 21.28125 -11.8125 "/></g></g></g><g fill="#ffffff" fill-opacity="1"><g transform="translate(221.2546, 357.859712)"><g><path d="M 1.84375 -3.703125 C 1.570312 -4.117188 1.4375 -4.523438 1.4375 -4.921875 C 1.4375 -5.515625 1.753906 -6.023438 2.390625 -6.453125 C 2.691406 -6.660156 3.035156 -6.765625 3.421875 -6.765625 C 3.960938 -6.765625 4.460938 -6.539062 4.921875 -6.09375 C 5.816406 -5.0625 6.78125 -4.289062 7.8125 -3.78125 C 8.851562 -3.269531 10.097656 -3.015625 11.546875 -3.015625 C 12.679688 -3.046875 13.6875 -3.304688 14.5625 -3.796875 C 15.4375 -4.296875 15.875 -5.101562 15.875 -6.21875 C 15.875 -7.238281 15.429688 -8.019531 14.546875 -8.5625 C 13.660156 -9.101562 12.359375 -9.601562 10.640625 -10.0625 C 8.953125 -10.507812 7.550781 -10.976562 6.4375 -11.46875 C 5.332031 -11.96875 4.394531 -12.691406 3.625 -13.640625 C 2.863281 -14.585938 2.484375 -15.828125 2.484375 -17.359375 C 2.484375 -18.710938 2.863281 -19.898438 3.625 -20.921875 C 4.394531 -21.941406 5.414062 -22.738281 6.6875 -23.3125 C 7.96875 -23.882812 9.363281 -24.171875 10.875 -24.171875 C 12.3125 -24.171875 13.742188 -23.898438 15.171875 -23.359375 C 16.597656 -22.816406 17.765625 -21.988281 18.671875 -20.875 C 19.023438 -20.457031 19.203125 -20.023438 19.203125 -19.578125 C 19.203125 -19.085938 18.960938 -18.617188 18.484375 -18.171875 C 18.179688 -17.898438 17.804688 -17.765625 17.359375 -17.765625 C 16.816406 -17.765625 16.378906 -17.945312 16.046875 -18.3125 C 15.421875 -19.03125 14.648438 -19.582031 13.734375 -19.96875 C 12.816406 -20.363281 11.800781 -20.5625 10.6875 -20.5625 C 9.539062 -20.5625 8.566406 -20.328125 7.765625 -19.859375 C 6.972656 -19.398438 6.578125 -18.613281 6.578125 -17.5 C 6.609375 -16.445312 7.066406 -15.664062 7.953125 -15.15625 C 8.847656 -14.644531 10.210938 -14.144531 12.046875 -13.65625 C 13.640625 -13.238281 14.960938 -12.789062 16.015625 -12.3125 C 17.066406 -11.832031 17.953125 -11.117188 18.671875 -10.171875 C 19.390625 -9.222656 19.75 -7.984375 19.75 -6.453125 C 19.75 -5.035156 19.34375 -3.804688 18.53125 -2.765625 C 17.71875 -1.734375 16.65625 -0.9375 15.34375 -0.375 C 14.039062 0.175781 12.65625 0.453125 11.1875 0.453125 C 9.289062 0.453125 7.535156 0.125 5.921875 -0.53125 C 4.316406 -1.195312 2.957031 -2.253906 1.84375 -3.703125 Z M 1.84375 -3.703125 "/></g></g></g><g fill="#ffffff" fill-opacity="1"><g transform="translate(244.074695, 357.859712)"><g><path d="M 9.609375 -19.4375 L 9.609375 -6 C 9.609375 -4.5 10.285156 -3.75 11.640625 -3.75 C 11.847656 -3.75 12.128906 -3.800781 12.484375 -3.90625 C 12.847656 -4.007812 13.132812 -4.0625 13.34375 -4.0625 C 13.738281 -4.0625 14.070312 -3.894531 14.34375 -3.5625 C 14.613281 -3.226562 14.75 -2.804688 14.75 -2.296875 C 14.75 -1.671875 14.382812 -1.128906 13.65625 -0.671875 C 12.9375 -0.222656 12.128906 0 11.234375 0 C 10.234375 0 9.320312 -0.101562 8.5 -0.3125 C 7.675781 -0.519531 6.941406 -1.050781 6.296875 -1.90625 C 5.648438 -2.769531 5.328125 -4.070312 5.328125 -5.8125 L 5.328125 -19.4375 L 2.703125 -19.4375 C 2.128906 -19.4375 1.65625 -19.625 1.28125 -20 C 0.90625 -20.375 0.71875 -20.847656 0.71875 -21.421875 C 0.71875 -21.992188 0.90625 -22.457031 1.28125 -22.8125 C 1.65625 -23.175781 2.128906 -23.359375 2.703125 -23.359375 L 5.328125 -23.359375 L 5.328125 -27.140625 C 5.328125 -27.742188 5.523438 -28.253906 5.921875 -28.671875 C 6.328125 -29.097656 6.847656 -29.3125 7.484375 -29.3125 C 8.085938 -29.3125 8.59375 -29.097656 9 -28.671875 C 9.40625 -28.253906 9.609375 -27.742188 9.609375 -27.140625 L 9.609375 -23.359375 L 13.34375 -23.359375 C 13.914062 -23.359375 14.390625 -23.171875 14.765625 -22.796875 C 15.140625 -22.421875 15.328125 -21.945312 15.328125 -21.375 C 15.328125 -20.800781 15.140625 -20.332031 14.765625 -19.96875 C 14.390625 -19.613281 13.914062 -19.4375 13.34375 -19.4375 Z M 9.609375 -19.4375 "/></g></g></g><g fill="#ffffff" fill-opacity="1"><g transform="translate(262.520199, 357.859712)"><g><path d="M 7.265625 -2.171875 C 7.265625 -1.566406 7.0625 -1.050781 6.65625 -0.625 C 6.25 -0.207031 5.726562 0 5.09375 0 C 4.488281 0 3.984375 -0.207031 3.578125 -0.625 C 3.171875 -1.050781 2.96875 -1.566406 2.96875 -2.171875 L 2.96875 -21.6875 C 2.96875 -22.289062 3.171875 -22.800781 3.578125 -23.21875 C 3.984375 -23.644531 4.488281 -23.859375 5.09375 -23.859375 C 5.726562 -23.859375 6.25 -23.644531 6.65625 -23.21875 C 7.0625 -22.800781 7.265625 -22.289062 7.265625 -21.6875 Z M 5.09375 -26.828125 C 4.21875 -26.828125 3.59375 -26.984375 3.21875 -27.296875 C 2.84375 -27.617188 2.65625 -28.125 2.65625 -28.8125 L 2.65625 -29.53125 C 2.65625 -30.257812 2.859375 -30.769531 3.265625 -31.0625 C 3.671875 -31.363281 4.296875 -31.515625 5.140625 -31.515625 C 5.984375 -31.515625 6.59375 -31.359375 6.96875 -31.046875 C 7.34375 -30.734375 7.53125 -30.226562 7.53125 -29.53125 L 7.53125 -28.8125 C 7.53125 -28.09375 7.332031 -27.582031 6.9375 -27.28125 C 6.550781 -26.976562 5.9375 -26.828125 5.09375 -26.828125 Z M 5.09375 -26.828125 "/></g></g></g><g fill="#ffffff" fill-opacity="1"><g transform="translate(274.065541, 357.859712)"><g><path d="M 15.234375 -24.171875 C 20.648438 -24.171875 23.359375 -20.925781 23.359375 -14.4375 L 23.359375 -2.171875 C 23.359375 -1.566406 23.15625 -1.050781 22.75 -0.625 C 22.34375 -0.207031 21.820312 0 21.1875 0 C 20.59375 0 20.09375 -0.207031 19.6875 -0.625 C 19.28125 -1.050781 19.078125 -1.566406 19.078125 -2.171875 L 19.078125 -14.390625 C 19.078125 -16.160156 18.671875 -17.570312 17.859375 -18.625 C 17.046875 -19.675781 15.722656 -20.203125 13.890625 -20.203125 C 12.679688 -20.203125 11.585938 -19.9375 10.609375 -19.40625 C 9.640625 -18.882812 8.875 -18.179688 8.3125 -17.296875 C 7.757812 -16.410156 7.484375 -15.441406 7.484375 -14.390625 L 7.484375 -2.171875 C 7.484375 -1.566406 7.28125 -1.050781 6.875 -0.625 C 6.46875 -0.207031 5.953125 0 5.328125 0 C 4.691406 0 4.175781 -0.203125 3.78125 -0.609375 C 3.394531 -1.015625 3.203125 -1.535156 3.203125 -2.171875 L 3.203125 -21.46875 C 3.203125 -22.0625 3.40625 -22.566406 3.8125 -22.984375 C 4.21875 -23.410156 4.722656 -23.625 5.328125 -23.625 C 5.953125 -23.625 6.46875 -23.410156 6.875 -22.984375 C 7.28125 -22.566406 7.484375 -22.0625 7.484375 -21.46875 L 7.484375 -19.890625 C 8.265625 -21.085938 9.351562 -22.097656 10.75 -22.921875 C 12.15625 -23.753906 13.648438 -24.171875 15.234375 -24.171875 Z M 15.234375 -24.171875 "/></g></g></g><g fill="#ffffff" fill-opacity="1"><g transform="translate(301.936717, 357.859712)"><g><path d="M 22.953125 -23.9375 C 23.585938 -23.9375 24.109375 -23.734375 24.515625 -23.328125 C 24.921875 -22.929688 25.125 -22.398438 25.125 -21.734375 L 25.125 -1.890625 C 25.125 0.546875 24.601562 2.582031 23.5625 4.21875 C 22.519531 5.851562 21.113281 7.0625 19.34375 7.84375 C 17.570312 8.625 15.570312 9.015625 13.34375 9.015625 C 12.144531 9.015625 10.738281 8.800781 9.125 8.375 C 7.519531 7.957031 6.492188 7.523438 6.046875 7.078125 C 5.109375 6.597656 4.640625 6 4.640625 5.28125 C 4.640625 5.09375 4.703125 4.847656 4.828125 4.546875 C 5.160156 3.796875 5.71875 3.421875 6.5 3.421875 C 6.882812 3.421875 7.300781 3.515625 7.75 3.703125 C 10.15625 4.628906 12.035156 5.09375 13.390625 5.09375 C 15.796875 5.09375 17.632812 4.515625 18.90625 3.359375 C 20.1875 2.203125 20.828125 0.617188 20.828125 -1.390625 L 20.828125 -3.828125 C 20.203125 -2.660156 19.144531 -1.65625 17.65625 -0.8125 C 16.164062 0.03125 14.59375 0.453125 12.9375 0.453125 C 10.863281 0.453125 8.96875 -0.0703125 7.25 -1.125 C 5.539062 -2.175781 4.195312 -3.640625 3.21875 -5.515625 C 2.25 -7.398438 1.765625 -9.515625 1.765625 -11.859375 C 1.765625 -14.203125 2.25 -16.3125 3.21875 -18.1875 C 4.195312 -20.070312 5.535156 -21.539062 7.234375 -22.59375 C 8.929688 -23.644531 10.804688 -24.171875 12.859375 -24.171875 C 14.503906 -24.171875 16.039062 -23.796875 17.46875 -23.046875 C 18.894531 -22.296875 20.015625 -21.378906 20.828125 -20.296875 L 20.828125 -21.734375 C 20.828125 -22.367188 21.019531 -22.894531 21.40625 -23.3125 C 21.800781 -23.726562 22.316406 -23.9375 22.953125 -23.9375 Z M 13.4375 -3.515625 C 14.90625 -3.515625 16.210938 -3.867188 17.359375 -4.578125 C 18.503906 -5.285156 19.398438 -6.273438 20.046875 -7.546875 C 20.691406 -8.828125 21.015625 -10.265625 21.015625 -11.859375 C 21.015625 -13.453125 20.691406 -14.878906 20.046875 -16.140625 C 19.398438 -17.398438 18.503906 -18.390625 17.359375 -19.109375 C 16.210938 -19.835938 14.90625 -20.203125 13.4375 -20.203125 C 12 -20.203125 10.707031 -19.835938 9.5625 -19.109375 C 8.414062 -18.390625 7.519531 -17.390625 6.875 -16.109375 C 6.226562 -14.835938 5.90625 -13.421875 5.90625 -11.859375 C 5.90625 -10.296875 6.226562 -8.875 6.875 -7.59375 C 7.519531 -6.320312 8.414062 -5.320312 9.5625 -4.59375 C 10.707031 -3.875 12 -3.515625 13.4375 -3.515625 Z M 13.4375 -3.515625 "/></g></g></g><g clip-path="url(#489431bfbf)"><path fill="#ffffff" d="M 298.722656 200.027344 L 76.351562 200.027344 C 63.136719 200.027344 52.164062 190.425781 50 177.832031 L 325.046875 177.832031 C 322.9375 190.425781 311.9375 200.027344 298.722656 200.027344 Z M 66.863281 21.1875 C 66.863281 17.988281 69.363281 15.464844 72.570312 15.464844 L 302.453125 15.464844 C 305.65625 15.464844 308.1875 17.988281 308.1875 21.1875 L 308.1875 168.878906 L 66.863281 168.878906 Z M 329.871094 168.929688 L 317.125 168.929688 L 317.125 21.1875 C 317.125 13.148438 310.582031 6.589844 302.476562 6.589844 L 72.570312 6.589844 C 64.515625 6.589844 57.949219 13.148438 57.949219 21.1875 L 57.949219 168.878906 L 45.203125 168.878906 C 42.726562 168.929688 40.746094 170.910156 40.746094 173.382812 C 40.746094 192.972656 56.722656 208.925781 76.351562 208.925781 L 298.722656 208.925781 C 318.351562 208.925781 334.328125 192.972656 334.328125 173.382812 C 334.328125 170.910156 332.371094 168.929688 329.871094 168.929688 " fill-opacity="1" fill-rule="nonzero"/></g><path fill="#ffffff" d="M 282.667969 149.105469 L 92.40625 149.105469 L 92.40625 35.527344 L 282.644531 35.527344 L 282.644531 149.105469 Z M 287.125 26.652344 L 87.949219 26.652344 C 85.472656 26.652344 83.492188 28.628906 83.492188 31.101562 L 83.492188 153.554688 C 83.492188 156.027344 85.472656 158.003906 87.949219 158.003906 L 287.074219 158.003906 C 289.550781 158.003906 291.53125 156.027344 291.53125 153.554688 L 291.53125 31.101562 C 291.582031 28.628906 289.550781 26.652344 287.125 26.652344 " fill-opacity="1" fill-rule="nonzero"/><path fill="#ffffff" d="M 175 127.585938 C 175.523438 127.765625 175.992188 127.84375 176.488281 127.84375 C 178.3125 127.84375 180.003906 126.699219 180.65625 124.878906 L 202.523438 62.691406 C 203.359375 60.347656 202.105469 57.824219 199.839844 57.019531 C 197.492188 56.1875 194.964844 57.433594 194.132812 59.722656 L 172.265625 121.914062 C 171.480469 124.230469 172.734375 126.753906 175 127.585938 Z M 244.511719 93.238281 L 214.746094 116.785156 C 212.820312 118.296875 212.480469 121.082031 214.019531 123.003906 C 214.878906 124.097656 216.207031 124.695312 217.484375 124.695312 C 218.449219 124.695312 219.414062 124.386719 220.246094 123.734375 L 254.390625 96.75 C 255.433594 95.945312 256.085938 94.644531 256.085938 93.316406 C 256.085938 91.988281 255.460938 90.714844 254.417969 89.855469 L 218.867188 60.894531 C 216.9375 59.359375 214.148438 59.621094 212.636719 61.546875 C 211.074219 63.472656 211.359375 66.253906 213.261719 67.765625 Z M 154.828125 123.734375 C 155.660156 124.386719 156.625 124.695312 157.589844 124.695312 C 158.917969 124.695312 160.195312 124.097656 161.058594 123.003906 C 162.59375 121.082031 162.253906 118.296875 160.328125 116.785156 L 130.5625 93.238281 L 161.8125 67.765625 C 163.714844 66.230469 164 63.417969 162.4375 61.546875 C 160.898438 59.621094 158.085938 59.359375 156.207031 60.894531 L 120.65625 89.855469 C 119.617188 90.714844 118.988281 91.9375 118.988281 93.316406 C 118.988281 94.644531 119.640625 95.945312 120.710938 96.75 L 154.828125 123.734375 " fill-opacity="1" fill-rule="nonzero"/></svg>