<svg xmlns="http://www.w3.org/2000/svg" xmlns:xlink="http://www.w3.org/1999/xlink" width="500" zoomAndPan="magnify" viewBox="0 0 375 374.999991" height="500" preserveAspectRatio="xMidYMid meet" version="1.0"><defs><g/><clipPath id="9b267378c9"><path d="M 149 175 L 217 175 L 217 219.742188 L 149 219.742188 Z M 149 175 " clip-rule="nonzero"/></clipPath><clipPath id="95edafa719"><path d="M 120 110 L 251.457031 110 L 251.457031 181 L 120 181 Z M 120 110 " clip-rule="nonzero"/></clipPath><clipPath id="4038f72d23"><path d="M 210 96.742188 L 229 96.742188 L 229 119 L 210 119 Z M 210 96.742188 " clip-rule="nonzero"/></clipPath><clipPath id="38a5952730"><path d="M 149 96.742188 L 168 96.742188 L 168 119 L 149 119 Z M 149 96.742188 " clip-rule="nonzero"/></clipPath></defs><path fill="#ffde17" d="M 155.464844 115.632812 C 156.035156 115.90625 156.628906 116.105469 157.25 116.230469 C 157.871094 116.355469 158.496094 116.402344 159.125 116.371094 C 159.757812 116.335938 160.375 116.226562 160.976562 116.039062 C 161.582031 115.851562 162.152344 115.59375 162.691406 115.261719 C 163.511719 114.75 164.1875 114.085938 164.714844 113.269531 C 164.917969 112.964844 165.039062 112.632812 165.074219 112.269531 C 165.109375 111.902344 165.058594 111.550781 164.917969 111.214844 C 164.777344 110.863281 164.5625 110.566406 164.273438 110.324219 C 163.984375 110.082031 163.65625 109.921875 163.285156 109.84375 C 162.167969 109.601562 161.101562 109.203125 160.097656 108.648438 C 159.09375 108.097656 158.1875 107.410156 157.378906 106.59375 C 156.570312 105.777344 155.894531 104.863281 155.351562 103.847656 C 154.808594 102.835938 154.421875 101.765625 154.1875 100.640625 C 152.140625 103.917969 151.609375 108.023438 152.746094 112.21875 C 152.9375 112.957031 153.269531 113.621094 153.742188 114.214844 C 154.21875 114.8125 154.792969 115.28125 155.464844 115.632812 Z M 155.464844 115.632812 " fill-opacity="1" fill-rule="nonzero"/><path fill="#ffde17" d="M 215.300781 115.261719 C 215.839844 115.59375 216.410156 115.851562 217.015625 116.039062 C 217.617188 116.226562 218.234375 116.335938 218.867188 116.371094 C 219.496094 116.402344 220.121094 116.355469 220.742188 116.230469 C 221.363281 116.105469 221.957031 115.90625 222.527344 115.632812 C 223.203125 115.285156 223.78125 114.8125 224.257812 114.214844 C 224.734375 113.621094 225.066406 112.953125 225.257812 112.214844 C 226.394531 108.015625 225.863281 103.914062 223.820312 100.636719 C 223.277344 103.144531 222.066406 105.269531 220.1875 107.007812 C 218.609375 108.4375 216.78125 109.382812 214.707031 109.839844 C 214.335938 109.917969 214.007812 110.078125 213.71875 110.320312 C 213.429688 110.5625 213.214844 110.859375 213.074219 111.207031 C 212.933594 111.546875 212.882812 111.898438 212.921875 112.261719 C 212.957031 112.628906 213.078125 112.960938 213.28125 113.265625 C 213.804688 114.082031 214.480469 114.746094 215.300781 115.261719 Z M 215.300781 115.261719 " fill-opacity="1" fill-rule="nonzero"/><path fill="#ffde17" d="M 191.652344 170.460938 C 186.992188 176.484375 179.34375 180.046875 170.964844 180.046875 C 168.214844 180.046875 165.523438 179.652344 162.886719 178.867188 L 153.535156 188.265625 L 188.449219 188.265625 C 188.644531 188.265625 188.824219 188.320312 188.988281 188.429688 C 189.152344 188.539062 189.269531 188.683594 189.34375 188.863281 C 189.421875 189.046875 189.4375 189.234375 189.402344 189.425781 C 189.363281 189.617188 189.273438 189.785156 189.136719 189.921875 L 166.800781 212.332031 L 211.730469 182.449219 L 198.261719 182.449219 C 198.066406 182.449219 197.886719 182.394531 197.722656 182.285156 C 197.5625 182.175781 197.441406 182.03125 197.367188 181.847656 C 197.292969 181.667969 197.273438 181.480469 197.3125 181.289062 C 197.351562 181.09375 197.4375 180.929688 197.578125 180.789062 L 201.472656 176.878906 C 197.6875 175.527344 194.417969 173.386719 191.652344 170.460938 Z M 191.652344 170.460938 " fill-opacity="1" fill-rule="nonzero"/><path fill="#76919b" d="M 235.539062 136.78125 C 235.328125 136.777344 235.136719 136.710938 234.96875 136.578125 C 234.804688 136.449219 234.691406 136.28125 234.632812 136.078125 C 233.070312 130.621094 227.40625 126.808594 220.875 126.808594 C 218.046875 126.789062 215.40625 127.488281 212.949219 128.898438 C 212.683594 129.054688 212.410156 129.078125 212.125 128.96875 C 211.835938 128.863281 211.644531 128.664062 211.546875 128.375 C 211.148438 127.21875 210.667969 126.105469 210.097656 125.027344 C 209.527344 123.945312 208.878906 122.917969 208.152344 121.941406 C 207.421875 120.964844 206.621094 120.050781 205.75 119.199219 C 204.878906 118.347656 203.949219 117.570312 202.957031 116.863281 C 201.964844 116.160156 200.921875 115.535156 199.835938 114.992188 C 198.746094 114.449219 197.621094 113.992188 196.460938 113.628906 C 195.300781 113.261719 194.121094 112.984375 192.917969 112.804688 C 191.714844 112.621094 190.503906 112.535156 189.289062 112.542969 C 188.070312 112.550781 186.863281 112.652344 185.664062 112.847656 C 184.464844 113.042969 183.285156 113.332031 182.128906 113.714844 C 180.972656 114.09375 179.855469 114.5625 178.773438 115.117188 C 177.691406 115.675781 176.65625 116.3125 175.671875 117.03125 C 174.6875 117.746094 173.765625 118.539062 172.90625 119.398438 C 172.046875 120.261719 171.257812 121.183594 170.539062 122.171875 C 169.824219 123.15625 169.1875 124.191406 168.628906 125.277344 C 168.074219 126.363281 167.605469 127.484375 167.222656 128.640625 C 167.175781 128.785156 167.101562 128.910156 166.996094 129.015625 C 166.894531 129.125 166.769531 129.203125 166.628906 129.253906 C 166.488281 129.304688 166.34375 129.324219 166.195312 129.304688 C 166.046875 129.289062 165.910156 129.242188 165.785156 129.160156 C 165.242188 128.820312 164.6875 128.507812 164.113281 128.230469 C 163.535156 127.953125 162.949219 127.707031 162.34375 127.496094 C 161.742188 127.285156 161.128906 127.109375 160.507812 126.96875 C 159.882812 126.828125 159.253906 126.726562 158.621094 126.65625 C 157.984375 126.585938 157.347656 126.554688 156.710938 126.558594 C 156.070312 126.566406 155.4375 126.605469 154.800781 126.683594 C 154.167969 126.761719 153.539062 126.875 152.921875 127.023438 C 152.300781 127.171875 151.6875 127.355469 151.089844 127.574219 C 150.488281 127.792969 149.902344 128.046875 149.332031 128.332031 C 148.761719 128.621094 148.207031 128.9375 147.671875 129.285156 C 147.136719 129.636719 146.625 130.015625 146.132812 130.421875 C 145.640625 130.832031 145.175781 131.265625 144.730469 131.730469 C 144.289062 132.191406 143.875 132.675781 143.488281 133.1875 C 143.101562 133.695312 142.746094 134.226562 142.417969 134.773438 C 142.089844 135.324219 141.796875 135.894531 141.535156 136.476562 C 141.273438 137.0625 141.042969 137.65625 140.851562 138.269531 C 140.773438 138.507812 140.625 138.691406 140.40625 138.816406 C 140.1875 138.945312 139.957031 138.980469 139.710938 138.921875 C 138.675781 138.6875 137.628906 138.570312 136.566406 138.570312 C 135.636719 138.554688 134.710938 138.636719 133.796875 138.804688 C 132.878906 138.976562 131.988281 139.238281 131.125 139.585938 C 130.257812 139.9375 129.4375 140.367188 128.65625 140.878906 C 127.878906 141.390625 127.15625 141.976562 126.492188 142.632812 C 125.828125 143.289062 125.234375 144.007812 124.714844 144.78125 C 124.191406 145.554688 123.75 146.375 123.390625 147.238281 C 123.03125 148.101562 122.761719 148.988281 122.578125 149.90625 C 122.394531 150.824219 122.300781 151.75 122.300781 152.683594 C 122.300781 153.621094 122.394531 154.546875 122.578125 155.460938 C 122.761719 156.378906 123.03125 157.269531 123.390625 158.132812 C 123.75 158.996094 124.191406 159.8125 124.714844 160.589844 C 125.234375 161.363281 125.828125 162.078125 126.492188 162.734375 C 127.15625 163.394531 127.878906 163.976562 128.65625 164.488281 C 129.4375 165.003906 130.257812 165.433594 131.125 165.78125 C 131.988281 166.132812 132.878906 166.390625 133.796875 166.5625 C 134.710938 166.734375 135.636719 166.8125 136.566406 166.800781 C 138.511719 166.808594 140.378906 166.425781 142.164062 165.648438 C 143.945312 164.875 145.5 163.773438 146.828125 162.34375 C 147.019531 162.140625 147.253906 162.039062 147.535156 162.039062 C 147.613281 162.035156 147.695312 162.046875 147.773438 162.066406 C 148.144531 162.160156 148.375 162.394531 148.472656 162.761719 C 150.230469 169.476562 155.699219 174.695312 162.765625 176.992188 C 162.859375 177.007812 162.945312 177.039062 163.03125 177.078125 C 165.617188 177.882812 168.265625 178.285156 170.96875 178.277344 C 179.050781 178.277344 186.644531 174.542969 190.792969 168.535156 C 190.882812 168.410156 190.988281 168.3125 191.121094 168.238281 C 191.253906 168.164062 191.398438 168.125 191.546875 168.117188 C 191.699219 168.109375 191.84375 168.136719 191.984375 168.199219 C 192.121094 168.261719 192.238281 168.347656 192.335938 168.464844 C 196.667969 173.675781 203.671875 176.789062 211.070312 176.789062 C 221.589844 176.789062 230.773438 170.644531 233.40625 161.847656 C 233.46875 161.632812 233.59375 161.460938 233.773438 161.332031 C 233.957031 161.203125 234.15625 161.144531 234.378906 161.15625 C 234.605469 161.15625 234.847656 161.171875 235.109375 161.171875 C 242.917969 161.171875 249.273438 155.699219 249.273438 148.96875 C 249.277344 142.332031 243.242188 136.976562 235.539062 136.78125 Z M 235.539062 136.78125 " fill-opacity="1" fill-rule="nonzero"/><path fill="#9caeb7" d="M 235.539062 136.609375 C 235.328125 136.605469 235.136719 136.539062 234.972656 136.40625 C 234.804688 136.277344 234.691406 136.113281 234.632812 135.90625 C 233.070312 130.449219 227.40625 126.636719 220.875 126.636719 C 218.046875 126.621094 215.40625 127.316406 212.949219 128.726562 C 212.824219 128.800781 212.691406 128.84375 212.546875 128.855469 C 212.402344 128.867188 212.261719 128.847656 212.125 128.796875 C 211.988281 128.75 211.871094 128.671875 211.769531 128.566406 C 211.667969 128.460938 211.59375 128.34375 211.546875 128.203125 C 211.148438 127.050781 210.667969 125.933594 210.097656 124.855469 C 209.53125 123.777344 208.882812 122.75 208.152344 121.773438 C 207.425781 120.792969 206.625 119.878906 205.753906 119.027344 C 204.882812 118.175781 203.949219 117.398438 202.957031 116.691406 C 201.964844 115.984375 200.925781 115.359375 199.835938 114.816406 C 198.746094 114.273438 197.621094 113.820312 196.460938 113.453125 C 195.300781 113.085938 194.121094 112.8125 192.917969 112.628906 C 191.714844 112.445312 190.503906 112.359375 189.289062 112.367188 C 188.070312 112.375 186.863281 112.476562 185.664062 112.671875 C 184.460938 112.871094 183.285156 113.160156 182.128906 113.539062 C 180.972656 113.921875 179.855469 114.390625 178.769531 114.945312 C 177.6875 115.5 176.65625 116.136719 175.671875 116.855469 C 174.6875 117.574219 173.765625 118.363281 172.90625 119.226562 C 172.042969 120.089844 171.253906 121.015625 170.539062 122 C 169.820312 122.984375 169.183594 124.019531 168.628906 125.105469 C 168.074219 126.191406 167.605469 127.3125 167.222656 128.472656 C 167.175781 128.617188 167.101562 128.742188 166.996094 128.847656 C 166.894531 128.957031 166.769531 129.035156 166.628906 129.085938 C 166.488281 129.136719 166.34375 129.152344 166.195312 129.136719 C 166.046875 129.121094 165.910156 129.070312 165.785156 128.992188 C 165.242188 128.648438 164.6875 128.339844 164.113281 128.0625 C 163.535156 127.78125 162.949219 127.539062 162.34375 127.328125 C 161.742188 127.117188 161.128906 126.941406 160.507812 126.800781 C 159.882812 126.660156 159.253906 126.554688 158.621094 126.488281 C 157.984375 126.417969 157.351562 126.386719 156.710938 126.390625 C 156.074219 126.394531 155.4375 126.433594 154.804688 126.511719 C 154.167969 126.589844 153.542969 126.703125 152.921875 126.851562 C 152.300781 127 151.691406 127.183594 151.089844 127.402344 C 150.492188 127.621094 149.90625 127.875 149.332031 128.160156 C 148.761719 128.449219 148.210938 128.765625 147.675781 129.113281 C 147.140625 129.464844 146.625 129.84375 146.132812 130.25 C 145.644531 130.660156 145.175781 131.09375 144.734375 131.554688 C 144.292969 132.019531 143.875 132.503906 143.488281 133.011719 C 143.101562 133.523438 142.746094 134.050781 142.417969 134.601562 C 142.09375 135.152344 141.796875 135.71875 141.535156 136.300781 C 141.273438 136.886719 141.042969 137.484375 140.851562 138.09375 C 140.773438 138.332031 140.625 138.515625 140.40625 138.640625 C 140.1875 138.765625 139.957031 138.800781 139.710938 138.746094 C 138.675781 138.511719 137.628906 138.390625 136.566406 138.390625 C 135.414062 138.390625 134.277344 138.53125 133.15625 138.8125 C 132.035156 139.09375 130.964844 139.507812 129.949219 140.054688 C 128.929688 140.601562 127.992188 141.261719 127.132812 142.039062 C 126.277344 142.816406 125.527344 143.683594 124.886719 144.648438 C 124.820312 145.144531 124.78125 145.640625 124.773438 146.140625 C 124.761719 146.640625 124.773438 147.140625 124.816406 147.640625 C 124.859375 148.136719 124.925781 148.632812 125.019531 149.125 C 125.113281 149.613281 125.234375 150.101562 125.378906 150.578125 C 125.523438 151.058594 125.695312 151.527344 125.890625 151.988281 C 126.085938 152.445312 126.304688 152.894531 126.546875 153.332031 C 126.789062 153.769531 127.054688 154.191406 127.34375 154.601562 C 127.628906 155.007812 127.9375 155.402344 128.269531 155.777344 C 128.597656 156.152344 128.945312 156.507812 129.3125 156.847656 C 129.679688 157.1875 130.066406 157.503906 130.464844 157.800781 C 130.867188 158.097656 131.28125 158.375 131.710938 158.625 C 132.140625 158.878906 132.585938 159.109375 133.039062 159.3125 C 133.492188 159.519531 133.957031 159.699219 134.429688 159.855469 C 134.90625 160.011719 135.386719 160.144531 135.875 160.25 C 136.359375 160.351562 136.851562 160.433594 137.347656 160.484375 C 137.84375 160.535156 138.339844 160.5625 138.839844 160.5625 C 140.785156 160.570312 142.648438 160.1875 144.433594 159.410156 C 146.21875 158.636719 147.773438 157.535156 149.097656 156.105469 C 149.289062 155.902344 149.527344 155.796875 149.804688 155.796875 C 149.886719 155.796875 149.964844 155.808594 150.042969 155.828125 C 150.414062 155.921875 150.644531 156.152344 150.746094 156.523438 C 152.503906 163.234375 157.972656 168.457031 165.035156 170.753906 C 165.132812 170.765625 165.21875 170.796875 165.304688 170.839844 C 167.890625 171.640625 170.535156 172.042969 173.242188 172.035156 C 181.324219 172.035156 188.917969 168.304688 193.0625 162.292969 C 193.246094 162.03125 193.5 161.890625 193.820312 161.875 C 194.140625 161.859375 194.402344 161.976562 194.605469 162.226562 C 198.9375 167.4375 205.945312 170.550781 213.339844 170.550781 C 223.863281 170.550781 233.042969 164.40625 235.679688 155.605469 C 235.742188 155.394531 235.863281 155.222656 236.046875 155.09375 C 236.226562 154.964844 236.429688 154.90625 236.652344 154.917969 C 236.875 154.917969 237.121094 154.933594 237.378906 154.933594 C 242.351562 154.933594 246.730469 152.714844 249.257812 149.371094 C 249.257812 149.175781 249.273438 148.984375 249.273438 148.792969 C 249.277344 142.160156 243.242188 136.804688 235.539062 136.609375 Z M 235.539062 136.609375 " fill-opacity="1" fill-rule="nonzero"/><path fill="#c8d2d6" d="M 235.023438 136.769531 L 235.164062 136.519531 C 234.890625 136.398438 234.714844 136.195312 234.628906 135.90625 C 233.066406 130.449219 227.402344 126.636719 220.871094 126.636719 C 218.042969 126.621094 215.402344 127.316406 212.949219 128.726562 C 212.820312 128.800781 212.6875 128.84375 212.542969 128.855469 C 212.398438 128.867188 212.257812 128.847656 212.121094 128.796875 C 211.984375 128.75 211.867188 128.671875 211.765625 128.566406 C 211.664062 128.460938 211.589844 128.34375 211.542969 128.203125 C 211.148438 127.050781 210.664062 125.933594 210.097656 124.855469 C 209.527344 123.777344 208.878906 122.75 208.148438 121.773438 C 207.421875 120.792969 206.621094 119.878906 205.75 119.027344 C 204.878906 118.175781 203.949219 117.398438 202.957031 116.691406 C 201.964844 115.984375 200.921875 115.359375 199.832031 114.816406 C 198.742188 114.273438 197.617188 113.820312 196.457031 113.453125 C 195.296875 113.085938 194.117188 112.8125 192.914062 112.628906 C 191.710938 112.445312 190.503906 112.359375 189.285156 112.367188 C 188.070312 112.375 186.859375 112.476562 185.660156 112.671875 C 184.460938 112.871094 183.28125 113.160156 182.125 113.539062 C 180.96875 113.921875 179.851562 114.390625 178.769531 114.945312 C 177.683594 115.5 176.652344 116.136719 175.667969 116.855469 C 174.683594 117.574219 173.761719 118.363281 172.902344 119.226562 C 172.042969 120.089844 171.253906 121.015625 170.535156 122 C 169.820312 122.984375 169.183594 124.019531 168.625 125.105469 C 168.070312 126.191406 167.601562 127.3125 167.222656 128.472656 C 167.222656 128.472656 175.726562 113.074219 191.925781 116.375 C 203.378906 118.707031 208.152344 126.847656 209.96875 131.410156 C 210.117188 131.792969 210.335938 132.128906 210.621094 132.421875 C 210.90625 132.714844 211.234375 132.941406 211.609375 133.097656 C 211.988281 133.257812 212.378906 133.335938 212.785156 133.335938 C 213.195312 133.335938 213.585938 133.257812 213.960938 133.097656 C 219.015625 130.941406 229.246094 128.082031 235.023438 136.769531 Z M 235.023438 136.769531 " fill-opacity="1" fill-rule="nonzero"/><path fill="#ffffff" d="M 166.800781 212.328125 L 207.003906 183.695312 L 198.261719 182.449219 L 211.730469 182.449219 Z M 166.800781 212.328125 " fill-opacity="1" fill-rule="nonzero"/><path fill="#ddb907" d="M 188.449219 188.257812 L 158 186.636719 L 164.832031 179.378906 L 162.886719 178.875 L 153.535156 188.257812 Z M 188.449219 188.257812 " fill-opacity="1" fill-rule="nonzero"/><path fill="#ffffff" d="M 223.816406 100.636719 C 223.816406 100.636719 224.25 107.003906 217.125 110.183594 C 211.648438 112.628906 215.914062 115.609375 215.914062 115.609375 C 215.914062 115.609375 212.382812 113.957031 212.523438 113.65625 C 212.660156 113.355469 211.9375 111.898438 212.03125 111.414062 C 212.128906 110.933594 213.007812 109.386719 213.148438 109.105469 C 213.289062 108.820312 217.546875 107.5625 218.109375 107.285156 C 218.667969 107.003906 220.828125 103.921875 220.828125 103.921875 C 220.828125 103.921875 222.574219 102.242188 222.644531 101.890625 C 222.714844 101.542969 223.816406 100.636719 223.816406 100.636719 Z M 223.816406 100.636719 " fill-opacity="1" fill-rule="nonzero"/><path fill="#ffffff" d="M 154.082031 100.636719 C 154.082031 100.636719 153.648438 107.003906 160.773438 110.183594 C 166.25 112.628906 161.984375 115.609375 161.984375 115.609375 C 161.984375 115.609375 165.53125 113.957031 165.378906 113.65625 C 165.230469 113.355469 165.964844 111.898438 165.871094 111.414062 C 165.773438 110.933594 164.890625 109.386719 164.753906 109.105469 C 164.613281 108.820312 160.351562 107.5625 159.792969 107.285156 C 159.234375 107.003906 157.070312 103.921875 157.070312 103.921875 C 157.070312 103.921875 155.328125 102.242188 155.257812 101.890625 C 155.1875 101.542969 154.082031 100.636719 154.082031 100.636719 Z M 154.082031 100.636719 " fill-opacity="1" fill-rule="nonzero"/><g clip-path="url(#9b267378c9)"><path fill="#b29502" d="M 159.285156 219.707031 C 159.039062 219.707031 158.816406 219.636719 158.613281 219.5 C 158.40625 219.363281 158.257812 219.183594 158.164062 218.957031 C 158.070312 218.726562 158.046875 218.492188 158.09375 218.253906 C 158.144531 218.011719 158.253906 217.804688 158.425781 217.628906 L 185.523438 190.445312 L 151.195312 190.445312 C 150.949219 190.449219 150.722656 190.378906 150.519531 190.242188 C 150.316406 190.109375 150.167969 189.925781 150.070312 189.699219 C 149.976562 189.46875 149.957031 189.234375 150.003906 188.996094 C 150.050781 188.753906 150.164062 188.546875 150.339844 188.371094 L 161.75 176.921875 C 161.863281 176.800781 161.992188 176.707031 162.144531 176.636719 C 162.292969 176.566406 162.453125 176.53125 162.617188 176.527344 C 162.785156 176.523438 162.941406 176.554688 163.097656 176.613281 C 163.25 176.675781 163.386719 176.765625 163.503906 176.882812 C 163.621094 177 163.707031 177.136719 163.769531 177.292969 C 163.832031 177.445312 163.859375 177.605469 163.855469 177.769531 C 163.855469 177.9375 163.816406 178.09375 163.75 178.246094 C 163.679688 178.398438 163.585938 178.53125 163.464844 178.640625 L 154.121094 188.015625 L 188.449219 188.015625 C 188.695312 188.015625 188.921875 188.082031 189.125 188.21875 C 189.328125 188.355469 189.480469 188.535156 189.574219 188.765625 C 189.667969 188.992188 189.691406 189.226562 189.640625 189.46875 C 189.59375 189.710938 189.480469 189.917969 189.308594 190.089844 L 168.679688 210.785156 L 210.929688 182.691406 L 198.261719 182.691406 C 198.015625 182.691406 197.792969 182.625 197.589844 182.488281 C 197.386719 182.351562 197.238281 182.167969 197.144531 181.941406 C 197.050781 181.714844 197.027344 181.480469 197.074219 181.238281 C 197.121094 181 197.234375 180.792969 197.40625 180.617188 L 202.390625 175.617188 C 202.503906 175.492188 202.632812 175.398438 202.785156 175.328125 C 202.9375 175.261719 203.09375 175.222656 203.257812 175.21875 C 203.425781 175.214844 203.585938 175.246094 203.738281 175.308594 C 203.890625 175.371094 204.027344 175.457031 204.144531 175.578125 C 204.261719 175.695312 204.351562 175.828125 204.410156 175.984375 C 204.472656 176.136719 204.503906 176.296875 204.5 176.464844 C 204.496094 176.628906 204.457031 176.789062 204.390625 176.9375 C 204.320312 177.089844 204.226562 177.222656 204.105469 177.332031 L 201.1875 180.261719 L 214.953125 180.261719 C 215.21875 180.261719 215.460938 180.339844 215.675781 180.5 C 215.890625 180.660156 216.035156 180.871094 216.113281 181.125 C 216.191406 181.382812 216.183594 181.636719 216.09375 181.890625 C 216 182.144531 215.84375 182.34375 215.621094 182.492188 L 159.953125 219.503906 C 159.75 219.636719 159.527344 219.707031 159.285156 219.707031 Z M 159.285156 219.707031 " fill-opacity="1" fill-rule="nonzero"/></g><g clip-path="url(#95edafa719)"><path fill="#37545b" d="M 170.964844 180.296875 C 165.242188 180.296875 159.636719 178.574219 155.175781 175.445312 C 151.339844 172.75 148.484375 169.105469 146.957031 165.042969 C 146.433594 165.476562 145.890625 165.875 145.320312 166.242188 C 144.75 166.605469 144.160156 166.933594 143.546875 167.226562 C 142.9375 167.515625 142.308594 167.769531 141.667969 167.980469 C 141.023438 168.195312 140.371094 168.367188 139.707031 168.496094 C 139.042969 168.628906 138.375 168.71875 137.699219 168.765625 C 137.023438 168.8125 136.351562 168.816406 135.675781 168.777344 C 135 168.742188 134.328125 168.660156 133.664062 168.539062 C 132.996094 168.417969 132.34375 168.253906 131.695312 168.050781 C 131.050781 167.847656 130.421875 167.605469 129.804688 167.320312 C 129.191406 167.039062 128.597656 166.71875 128.019531 166.359375 C 127.445312 166.003906 126.894531 165.613281 126.367188 165.183594 C 125.84375 164.757812 125.34375 164.300781 124.875 163.8125 C 124.40625 163.324219 123.96875 162.808594 123.5625 162.265625 C 123.160156 161.71875 122.789062 161.152344 122.453125 160.5625 C 122.121094 159.972656 121.824219 159.367188 121.5625 158.738281 C 121.304688 158.113281 121.085938 157.472656 120.90625 156.816406 C 120.730469 156.160156 120.589844 155.5 120.496094 154.828125 C 120.398438 154.15625 120.34375 153.480469 120.332031 152.800781 C 120.320312 152.121094 120.347656 151.445312 120.421875 150.769531 C 120.492188 150.097656 120.605469 149.429688 120.761719 148.769531 C 120.917969 148.109375 121.113281 147.460938 121.347656 146.824219 C 121.585938 146.1875 121.859375 145.566406 122.171875 144.964844 C 122.484375 144.363281 122.832031 143.785156 123.21875 143.226562 C 123.605469 142.667969 124.023438 142.136719 124.472656 141.632812 C 124.925781 141.125 125.40625 140.652344 125.917969 140.207031 C 126.425781 139.761719 126.964844 139.347656 127.523438 138.96875 C 128.085938 138.59375 128.667969 138.25 129.273438 137.945312 C 129.878906 137.640625 130.5 137.375 131.136719 137.148438 C 131.773438 136.921875 132.421875 136.734375 133.085938 136.589844 C 133.746094 136.441406 134.410156 136.339844 135.085938 136.277344 C 135.757812 136.214844 136.433594 136.195312 137.109375 136.214844 C 137.785156 136.238281 138.457031 136.304688 139.125 136.410156 C 139.367188 135.785156 139.636719 135.175781 139.941406 134.578125 C 140.246094 133.980469 140.578125 133.402344 140.941406 132.839844 C 141.308594 132.28125 141.699219 131.738281 142.121094 131.21875 C 142.542969 130.699219 142.992188 130.207031 143.464844 129.734375 C 143.9375 129.261719 144.4375 128.816406 144.957031 128.394531 C 145.476562 127.976562 146.019531 127.585938 146.578125 127.222656 C 147.140625 126.863281 147.71875 126.53125 148.316406 126.230469 C 148.914062 125.929688 149.523438 125.660156 150.148438 125.425781 C 150.773438 125.191406 151.410156 124.988281 152.054688 124.820312 C 152.703125 124.652344 153.355469 124.515625 154.015625 124.417969 C 154.675781 124.316406 155.339844 124.253906 156.003906 124.226562 C 156.671875 124.195312 157.339844 124.203125 158.003906 124.242188 C 158.671875 124.285156 159.335938 124.363281 159.992188 124.472656 C 160.652344 124.585938 161.300781 124.730469 161.945312 124.914062 C 162.585938 125.09375 163.21875 125.308594 163.839844 125.554688 C 164.457031 125.804688 165.066406 126.082031 165.65625 126.394531 C 166.121094 125.210938 166.671875 124.066406 167.308594 122.964844 C 167.945312 121.863281 168.660156 120.816406 169.453125 119.820312 C 170.246094 118.828125 171.105469 117.894531 172.035156 117.027344 C 172.964844 116.164062 173.957031 115.371094 175.003906 114.652344 C 176.050781 113.933594 177.148438 113.296875 178.289062 112.742188 C 179.429688 112.1875 180.609375 111.71875 181.820312 111.339844 C 183.03125 110.960938 184.265625 110.675781 185.519531 110.480469 C 186.773438 110.285156 188.035156 110.183594 189.304688 110.179688 C 190.574219 110.171875 191.835938 110.257812 193.09375 110.441406 C 194.347656 110.625 195.585938 110.898438 196.800781 111.265625 C 198.015625 111.632812 199.199219 112.089844 200.34375 112.632812 C 201.492188 113.175781 202.59375 113.800781 203.648438 114.507812 C 204.703125 115.21875 205.703125 116 206.640625 116.855469 C 207.578125 117.714844 208.449219 118.636719 209.25 119.625 C 210.054688 120.609375 210.777344 121.652344 211.425781 122.746094 C 212.070312 123.84375 212.636719 124.980469 213.113281 126.160156 C 215.570312 125 218.160156 124.425781 220.875 124.4375 C 228.046875 124.4375 234.320312 128.511719 236.457031 134.453125 C 238.363281 134.570312 240.195312 134.992188 241.960938 135.722656 C 243.726562 136.449219 245.328125 137.441406 246.765625 138.699219 C 249.792969 141.417969 251.457031 145 251.457031 148.800781 C 251.457031 156.707031 244.179688 163.140625 235.210938 163.191406 C 231.976562 172.429688 222.195312 178.808594 211.074219 178.808594 C 203.578125 178.808594 196.445312 175.855469 191.671875 170.839844 C 186.957031 176.789062 179.324219 180.296875 170.964844 180.296875 Z M 147.535156 161.621094 C 147.632812 161.621094 147.734375 161.632812 147.832031 161.660156 C 148.292969 161.777344 148.585938 162.066406 148.707031 162.527344 C 151.035156 171.417969 160.398438 177.867188 170.964844 177.867188 C 178.96875 177.867188 186.488281 174.171875 190.589844 168.226562 C 190.695312 168.070312 190.832031 167.945312 191 167.855469 C 191.164062 167.761719 191.34375 167.714844 191.53125 167.703125 C 191.71875 167.695312 191.902344 167.730469 192.074219 167.808594 C 192.246094 167.882812 192.394531 167.996094 192.515625 168.140625 C 196.796875 173.296875 203.738281 176.375 211.074219 176.375 C 221.484375 176.375 230.574219 170.300781 233.175781 161.609375 C 233.253906 161.339844 233.410156 161.125 233.636719 160.964844 C 233.863281 160.804688 234.117188 160.730469 234.394531 160.742188 C 234.613281 160.742188 234.855469 160.757812 235.109375 160.757812 C 242.785156 160.757812 249.027344 155.390625 249.027344 148.800781 C 249.027344 142.292969 243.097656 137.046875 235.527344 136.851562 C 235.261719 136.847656 235.027344 136.761719 234.816406 136.597656 C 234.605469 136.4375 234.464844 136.226562 234.394531 135.972656 C 232.859375 130.621094 227.296875 126.882812 220.871094 126.882812 C 218.085938 126.863281 215.484375 127.550781 213.066406 128.9375 C 212.910156 129.027344 212.738281 129.082031 212.558594 129.097656 C 212.378906 129.113281 212.203125 129.089844 212.03125 129.027344 C 211.863281 128.960938 211.714844 128.867188 211.589844 128.734375 C 211.460938 128.605469 211.367188 128.453125 211.308594 128.28125 C 210.917969 127.140625 210.441406 126.035156 209.878906 124.96875 C 209.316406 123.902344 208.671875 122.886719 207.949219 121.917969 C 207.230469 120.953125 206.4375 120.046875 205.574219 119.203125 C 204.714844 118.359375 203.792969 117.589844 202.808594 116.890625 C 201.828125 116.195312 200.796875 115.574219 199.71875 115.039062 C 198.640625 114.5 197.527344 114.050781 196.382812 113.6875 C 195.234375 113.324219 194.0625 113.054688 192.875 112.875 C 191.683594 112.695312 190.488281 112.609375 189.28125 112.613281 C 188.078125 112.621094 186.882812 112.722656 185.695312 112.917969 C 184.507812 113.113281 183.339844 113.398438 182.199219 113.773438 C 181.054688 114.152344 179.949219 114.617188 178.875 115.167969 C 177.804688 115.714844 176.78125 116.347656 175.808594 117.058594 C 174.835938 117.769531 173.921875 118.550781 173.070312 119.402344 C 172.21875 120.257812 171.4375 121.171875 170.730469 122.144531 C 170.019531 123.121094 169.390625 124.144531 168.839844 125.21875 C 168.289062 126.292969 167.824219 127.40625 167.449219 128.550781 C 167.390625 128.730469 167.296875 128.886719 167.164062 129.019531 C 167.035156 129.152344 166.882812 129.253906 166.707031 129.316406 C 166.53125 129.378906 166.347656 129.402344 166.164062 129.378906 C 165.976562 129.359375 165.804688 129.296875 165.648438 129.199219 C 165.117188 128.859375 164.566406 128.554688 164 128.28125 C 163.433594 128.007812 162.851562 127.765625 162.257812 127.558594 C 161.664062 127.351562 161.0625 127.175781 160.445312 127.039062 C 159.832031 126.898438 159.214844 126.796875 158.589844 126.730469 C 157.960938 126.660156 157.335938 126.628906 156.707031 126.632812 C 156.078125 126.640625 155.449219 126.679688 154.824219 126.753906 C 154.203125 126.832031 153.582031 126.941406 152.972656 127.089844 C 152.359375 127.238281 151.757812 127.417969 151.167969 127.632812 C 150.574219 127.847656 150 128.097656 149.4375 128.378906 C 148.871094 128.660156 148.328125 128.976562 147.800781 129.320312 C 147.273438 129.664062 146.765625 130.039062 146.28125 130.441406 C 145.796875 130.84375 145.335938 131.269531 144.902344 131.726562 C 144.464844 132.179688 144.058594 132.660156 143.675781 133.160156 C 143.292969 133.664062 142.941406 134.183594 142.621094 134.726562 C 142.296875 135.269531 142.007812 135.828125 141.75 136.402344 C 141.492188 136.980469 141.265625 137.566406 141.074219 138.167969 C 140.976562 138.46875 140.792969 138.691406 140.519531 138.847656 C 140.246094 139 139.957031 139.042969 139.652344 138.972656 C 139.175781 138.863281 138.699219 138.777344 138.21875 138.71875 C 137.734375 138.660156 137.25 138.625 136.761719 138.617188 C 136.277344 138.609375 135.792969 138.625 135.308594 138.667969 C 134.824219 138.710938 134.34375 138.777344 133.863281 138.871094 C 133.386719 138.964844 132.917969 139.085938 132.453125 139.230469 C 131.988281 139.371094 131.53125 139.539062 131.085938 139.730469 C 130.636719 139.925781 130.203125 140.140625 129.777344 140.375 C 129.351562 140.613281 128.941406 140.875 128.542969 141.15625 C 128.148438 141.4375 127.765625 141.738281 127.398438 142.0625 C 127.035156 142.382812 126.6875 142.722656 126.355469 143.082031 C 126.027344 143.441406 125.71875 143.816406 125.425781 144.207031 C 125.136719 144.597656 124.867188 145.003906 124.621094 145.421875 C 124.371094 145.84375 124.148438 146.273438 123.945312 146.71875 C 123.742188 147.164062 123.566406 147.617188 123.410156 148.078125 C 123.257812 148.539062 123.125 149.011719 123.019531 149.484375 C 122.914062 149.960938 122.835938 150.441406 122.78125 150.929688 C 122.726562 151.414062 122.699219 151.898438 122.695312 152.386719 C 122.691406 152.875 122.710938 153.359375 122.761719 153.847656 C 122.808594 154.332031 122.878906 154.8125 122.980469 155.292969 C 123.078125 155.769531 123.199219 156.242188 123.347656 156.707031 C 123.496094 157.171875 123.667969 157.625 123.863281 158.074219 C 124.058594 158.519531 124.277344 158.953125 124.519531 159.378906 C 124.761719 159.800781 125.023438 160.210938 125.308594 160.605469 C 125.59375 161 125.898438 161.382812 126.222656 161.746094 C 126.546875 162.109375 126.890625 162.453125 127.25 162.78125 C 127.609375 163.105469 127.988281 163.414062 128.382812 163.703125 C 128.773438 163.988281 129.179688 164.253906 129.601562 164.5 C 130.023438 164.742188 130.457031 164.964844 130.898438 165.164062 C 131.34375 165.359375 131.796875 165.535156 132.261719 165.683594 C 132.722656 165.835938 133.191406 165.960938 133.667969 166.0625 C 134.144531 166.164062 134.625 166.238281 135.109375 166.289062 C 135.589844 166.335938 136.078125 166.363281 136.5625 166.359375 C 138.472656 166.371094 140.304688 166 142.0625 165.242188 C 143.816406 164.484375 145.34375 163.40625 146.648438 162.003906 C 146.890625 161.75 147.183594 161.621094 147.535156 161.621094 Z M 147.535156 161.621094 " fill-opacity="1" fill-rule="nonzero"/></g><g clip-path="url(#4038f72d23)"><path fill="#b29502" d="M 219.265625 118.5625 C 217.421875 118.570312 215.710938 118.089844 214.140625 117.117188 C 213.050781 116.433594 212.152344 115.546875 211.453125 114.464844 C 211.046875 113.863281 210.8125 113.199219 210.738281 112.476562 C 210.667969 111.753906 210.769531 111.058594 211.042969 110.386719 C 211.320312 109.703125 211.742188 109.125 212.304688 108.652344 C 212.867188 108.175781 213.507812 107.859375 214.222656 107.703125 C 215.921875 107.332031 217.417969 106.558594 218.710938 105.390625 C 219.722656 104.453125 220.507812 103.351562 221.0625 102.085938 C 221.613281 100.820312 221.894531 99.496094 221.898438 98.113281 C 221.894531 97.863281 221.964844 97.632812 222.105469 97.425781 C 222.25 97.214844 222.4375 97.066406 222.667969 96.976562 C 222.902344 96.882812 223.140625 96.867188 223.386719 96.925781 C 223.632812 96.980469 223.835938 97.105469 224.007812 97.289062 C 227.703125 101.359375 228.921875 107.007812 227.355469 112.789062 C 227.082031 113.832031 226.609375 114.769531 225.933594 115.609375 C 225.261719 116.445312 224.445312 117.105469 223.488281 117.59375 C 222.15625 118.246094 220.75 118.566406 219.265625 118.5625 Z M 223.910156 101.273438 C 223.628906 102.359375 223.203125 103.386719 222.636719 104.355469 C 222.070312 105.324219 221.386719 106.199219 220.578125 106.976562 C 219.769531 107.753906 218.871094 108.402344 217.882812 108.929688 C 216.894531 109.457031 215.851562 109.839844 214.757812 110.074219 C 214.425781 110.144531 214.132812 110.289062 213.871094 110.503906 C 213.613281 110.722656 213.421875 110.988281 213.296875 111.304688 C 213.171875 111.605469 213.125 111.917969 213.160156 112.238281 C 213.191406 112.5625 213.296875 112.859375 213.476562 113.132812 C 213.984375 113.917969 214.636719 114.5625 215.429688 115.058594 C 215.949219 115.378906 216.503906 115.628906 217.085938 115.8125 C 217.667969 115.992188 218.265625 116.097656 218.875 116.132812 C 219.488281 116.164062 220.09375 116.117188 220.691406 115.996094 C 221.289062 115.875 221.867188 115.683594 222.417969 115.417969 C 223.0625 115.085938 223.613281 114.636719 224.066406 114.066406 C 224.519531 113.5 224.839844 112.863281 225.019531 112.15625 C 226.082031 108.234375 225.671875 104.410156 223.910156 101.273438 Z M 223.910156 101.273438 " fill-opacity="1" fill-rule="nonzero"/></g><g clip-path="url(#38a5952730)"><path fill="#b29502" d="M 158.726562 118.5625 C 157.242188 118.570312 155.832031 118.246094 154.5 117.59375 C 153.542969 117.105469 152.726562 116.445312 152.054688 115.609375 C 151.378906 114.769531 150.90625 113.832031 150.632812 112.789062 C 149.0625 107.007812 150.285156 101.359375 153.980469 97.289062 C 154.148438 97.105469 154.355469 96.980469 154.601562 96.921875 C 154.84375 96.867188 155.082031 96.882812 155.316406 96.972656 C 155.550781 97.066406 155.738281 97.214844 155.878906 97.425781 C 156.019531 97.632812 156.089844 97.863281 156.085938 98.113281 C 156.085938 98.671875 156.128906 99.222656 156.21875 99.769531 C 156.308594 100.316406 156.445312 100.855469 156.628906 101.378906 C 156.8125 101.902344 157.035156 102.410156 157.304688 102.894531 C 157.574219 103.382812 157.882812 103.839844 158.226562 104.273438 C 158.574219 104.707031 158.957031 105.109375 159.371094 105.476562 C 159.785156 105.84375 160.230469 106.175781 160.699219 106.464844 C 161.171875 106.757812 161.664062 107.007812 162.175781 107.214844 C 162.691406 107.421875 163.21875 107.585938 163.761719 107.703125 C 164.476562 107.859375 165.117188 108.175781 165.679688 108.652344 C 166.242188 109.125 166.664062 109.703125 166.941406 110.386719 C 167.214844 111.058594 167.320312 111.753906 167.246094 112.476562 C 167.175781 113.199219 166.941406 113.863281 166.539062 114.464844 C 165.835938 115.546875 164.941406 116.433594 163.847656 117.117188 C 162.277344 118.089844 160.570312 118.570312 158.726562 118.5625 Z M 154.078125 101.273438 C 152.320312 104.410156 151.910156 108.234375 152.964844 112.152344 C 153.148438 112.859375 153.464844 113.496094 153.921875 114.066406 C 154.375 114.636719 154.925781 115.085938 155.574219 115.417969 C 156.125 115.683594 156.699219 115.878906 157.300781 116 C 157.898438 116.121094 158.503906 116.164062 159.113281 116.132812 C 159.722656 116.101562 160.320312 115.996094 160.90625 115.816406 C 161.488281 115.632812 162.042969 115.382812 162.5625 115.066406 C 163.355469 114.566406 164.003906 113.921875 164.511719 113.136719 C 164.691406 112.867188 164.796875 112.570312 164.832031 112.246094 C 164.863281 111.921875 164.816406 111.609375 164.695312 111.308594 C 164.570312 110.996094 164.375 110.730469 164.117188 110.511719 C 163.859375 110.292969 163.566406 110.152344 163.234375 110.082031 C 162.140625 109.84375 161.101562 109.460938 160.109375 108.9375 C 159.121094 108.410156 158.222656 107.757812 157.414062 106.980469 C 156.605469 106.203125 155.917969 105.328125 155.351562 104.359375 C 154.785156 103.390625 154.363281 102.363281 154.078125 101.277344 Z M 154.078125 101.273438 " fill-opacity="1" fill-rule="nonzero"/></g><path fill="#37545b" d="M 209.292969 139.871094 C 209.222656 139.726562 209.128906 139.601562 209.007812 139.496094 C 208.890625 139.386719 208.757812 139.308594 208.605469 139.253906 C 208.457031 139.199219 208.300781 139.175781 208.140625 139.183594 C 207.980469 139.191406 207.832031 139.230469 207.6875 139.300781 L 194.960938 145.429688 C 194.703125 145.554688 194.515625 145.746094 194.390625 146 C 194.269531 146.257812 194.242188 146.523438 194.304688 146.800781 C 194.371094 147.078125 194.511719 147.304688 194.734375 147.480469 C 194.957031 147.65625 195.210938 147.746094 195.496094 147.742188 C 195.605469 147.742188 195.714844 147.726562 195.820312 147.699219 C 195.953125 148.085938 196.121094 148.457031 196.328125 148.808594 C 196.539062 149.164062 196.78125 149.488281 197.058594 149.789062 C 197.335938 150.089844 197.640625 150.359375 197.976562 150.59375 C 198.3125 150.832031 198.667969 151.027344 199.042969 151.1875 C 199.417969 151.347656 199.808594 151.464844 200.210938 151.542969 C 200.613281 151.621094 201.015625 151.652344 201.425781 151.644531 C 201.835938 151.636719 202.238281 151.582031 202.636719 151.488281 C 203.03125 151.390625 203.414062 151.257812 203.785156 151.078125 C 204.152344 150.902344 204.5 150.6875 204.824219 150.4375 C 205.144531 150.1875 205.441406 149.90625 205.703125 149.59375 C 205.96875 149.277344 206.195312 148.941406 206.386719 148.578125 C 206.582031 148.21875 206.734375 147.839844 206.84375 147.445312 C 206.957031 147.050781 207.027344 146.648438 207.054688 146.242188 C 207.082031 145.832031 207.066406 145.425781 207.007812 145.019531 C 206.949219 144.613281 206.847656 144.21875 206.703125 143.832031 C 206.5625 143.449219 206.378906 143.082031 206.160156 142.738281 L 208.746094 141.492188 C 208.886719 141.421875 209.011719 141.324219 209.117188 141.203125 C 209.222656 141.082031 209.300781 140.945312 209.351562 140.792969 C 209.402344 140.640625 209.421875 140.488281 209.414062 140.328125 C 209.402344 140.167969 209.363281 140.015625 209.292969 139.871094 Z M 209.292969 139.871094 " fill-opacity="1" fill-rule="nonzero"/><path fill="#37545b" d="M 167.027344 139.871094 C 167.09375 139.726562 167.1875 139.601562 167.308594 139.492188 C 167.425781 139.386719 167.5625 139.308594 167.710938 139.253906 C 167.863281 139.199219 168.015625 139.175781 168.175781 139.183594 C 168.335938 139.191406 168.488281 139.230469 168.632812 139.300781 L 181.359375 145.429688 C 181.613281 145.554688 181.800781 145.746094 181.925781 146 C 182.046875 146.257812 182.074219 146.523438 182.011719 146.800781 C 181.949219 147.078125 181.804688 147.304688 181.582031 147.480469 C 181.359375 147.65625 181.105469 147.746094 180.824219 147.742188 C 180.710938 147.742188 180.601562 147.726562 180.496094 147.699219 C 180.367188 148.085938 180.199219 148.457031 179.988281 148.8125 C 179.78125 149.164062 179.539062 149.492188 179.261719 149.792969 C 178.984375 150.09375 178.675781 150.363281 178.34375 150.601562 C 178.007812 150.835938 177.652344 151.035156 177.273438 151.195312 C 176.898438 151.355469 176.507812 151.472656 176.105469 151.550781 C 175.707031 151.628906 175.300781 151.664062 174.890625 151.652344 C 174.480469 151.644531 174.078125 151.59375 173.679688 151.496094 C 173.28125 151.402344 172.898438 151.265625 172.53125 151.089844 C 172.160156 150.910156 171.8125 150.695312 171.488281 150.445312 C 171.167969 150.195312 170.871094 149.914062 170.609375 149.597656 C 170.34375 149.285156 170.117188 148.949219 169.925781 148.585938 C 169.730469 148.222656 169.578125 147.84375 169.46875 147.449219 C 169.355469 147.054688 169.285156 146.652344 169.257812 146.242188 C 169.234375 145.832031 169.25 145.425781 169.308594 145.019531 C 169.367188 144.613281 169.46875 144.21875 169.613281 143.832031 C 169.757812 143.449219 169.9375 143.082031 170.160156 142.738281 L 167.574219 141.492188 C 167.429688 141.421875 167.304688 141.324219 167.199219 141.203125 C 167.09375 141.085938 167.015625 140.949219 166.964844 140.796875 C 166.914062 140.644531 166.894531 140.488281 166.902344 140.328125 C 166.914062 140.167969 166.953125 140.015625 167.027344 139.871094 Z M 167.027344 139.871094 " fill-opacity="1" fill-rule="nonzero"/><path fill="#37545b" d="M 183.652344 156.335938 C 183.40625 156.335938 183.179688 156.265625 182.976562 156.128906 C 182.773438 155.992188 182.625 155.808594 182.53125 155.582031 C 182.4375 155.351562 182.417969 155.117188 182.464844 154.875 C 182.515625 154.636719 182.625 154.425781 182.800781 154.253906 C 184.070312 152.996094 185.429688 151.84375 186.878906 150.800781 C 187.625 150.265625 188.515625 149.679688 189.621094 149.550781 C 189.910156 149.515625 190.199219 149.515625 190.488281 149.546875 C 190.777344 149.582031 191.0625 149.644531 191.335938 149.742188 C 191.609375 149.839844 191.871094 149.96875 192.117188 150.125 C 192.363281 150.28125 192.585938 150.464844 192.789062 150.675781 C 192.996094 150.882812 193.171875 151.113281 193.324219 151.363281 C 193.476562 151.613281 193.597656 151.878906 193.6875 152.15625 C 193.777344 152.433594 193.835938 152.71875 193.863281 153.007812 C 193.886719 153.300781 193.882812 153.589844 193.839844 153.882812 C 193.816406 154.042969 193.765625 154.191406 193.683594 154.332031 C 193.601562 154.46875 193.496094 154.589844 193.367188 154.6875 C 193.238281 154.78125 193.097656 154.851562 192.941406 154.894531 C 192.785156 154.933594 192.628906 154.941406 192.46875 154.921875 C 192.308594 154.898438 192.160156 154.84375 192.019531 154.761719 C 191.878906 154.679688 191.761719 154.574219 191.664062 154.445312 C 191.566406 154.316406 191.5 154.175781 191.457031 154.019531 C 191.417969 153.859375 191.410156 153.703125 191.433594 153.542969 C 191.460938 153.328125 191.445312 153.121094 191.375 152.914062 C 191.308594 152.710938 191.199219 152.53125 191.050781 152.375 C 190.898438 152.222656 190.722656 152.109375 190.519531 152.035156 C 190.316406 151.964844 190.109375 151.941406 189.894531 151.964844 C 189.359375 152.027344 188.804688 152.402344 188.289062 152.773438 C 186.941406 153.742188 185.679688 154.808594 184.503906 155.976562 C 184.269531 156.214844 183.984375 156.332031 183.652344 156.335938 Z M 183.652344 156.335938 " fill-opacity="1" fill-rule="nonzero"/><path fill="#ffffff" d="M 196.925781 147.15625 C 196.945312 147.308594 196.984375 147.457031 197.039062 147.597656 C 197.09375 147.742188 197.164062 147.875 197.253906 148.003906 C 197.339844 148.128906 197.4375 148.246094 197.554688 148.347656 C 197.667969 148.449219 197.792969 148.539062 197.925781 148.609375 C 198.058594 148.683594 198.203125 148.742188 198.351562 148.78125 C 198.496094 148.820312 198.648438 148.839844 198.800781 148.84375 C 198.953125 148.847656 199.105469 148.835938 199.253906 148.804688 C 199.40625 148.769531 199.550781 148.722656 199.6875 148.65625 C 199.824219 148.589844 199.953125 148.507812 200.074219 148.410156 C 200.191406 148.3125 200.296875 148.203125 200.390625 148.082031 C 200.484375 147.960938 200.5625 147.828125 200.625 147.6875 C 200.6875 147.546875 200.730469 147.402344 200.757812 147.25 C 200.785156 147.101562 200.796875 146.949219 200.789062 146.796875 C 200.78125 146.640625 200.753906 146.492188 200.710938 146.34375 C 200.667969 146.195312 200.605469 146.058594 200.53125 145.925781 C 200.453125 145.789062 200.363281 145.667969 200.257812 145.558594 Z M 196.925781 147.15625 " fill-opacity="1" fill-rule="nonzero"/><path fill="#ffffff" d="M 176.15625 145.617188 C 176.019531 145.714844 175.898438 145.824219 175.789062 145.953125 C 175.683594 146.082031 175.59375 146.21875 175.523438 146.371094 C 175.453125 146.523438 175.402344 146.679688 175.371094 146.84375 C 175.339844 147.007812 175.328125 147.171875 175.339844 147.339844 C 175.351562 147.507812 175.382812 147.667969 175.4375 147.828125 C 175.492188 147.984375 175.5625 148.132812 175.65625 148.273438 C 175.746094 148.414062 175.855469 148.539062 175.976562 148.652344 C 176.101562 148.761719 176.238281 148.855469 176.382812 148.933594 C 176.53125 149.011719 176.6875 149.066406 176.851562 149.105469 C 177.011719 149.140625 177.175781 149.15625 177.34375 149.152344 C 177.507812 149.144531 177.671875 149.117188 177.832031 149.070312 C 177.992188 149.023438 178.140625 148.957031 178.285156 148.867188 C 178.425781 148.78125 178.554688 148.679688 178.671875 148.558594 C 178.789062 148.4375 178.886719 148.304688 178.96875 148.160156 C 179.050781 148.015625 179.109375 147.859375 179.152344 147.699219 C 179.195312 147.539062 179.214844 147.375 179.214844 147.207031 C 179.214844 147.164062 179.214844 147.121094 179.214844 147.082031 Z M 176.15625 145.617188 " fill-opacity="1" fill-rule="nonzero"/><g fill="#37545b" fill-opacity="1"><g transform="translate(99.061578, 251.268178)"><g><path d="M 5.847656 -0.644531 C 10.640625 -0.644531 5.746094 -5.03125 11.558594 -5.03125 C 18.628906 -5.03125 13.496094 -0.613281 17.542969 -0.613281 C 19.207031 -0.613281 22.097656 -0.613281 22.097656 -2.957031 C 22.097656 -6.289062 17.304688 -20.570312 15.230469 -23.117188 C 14.277344 -24.273438 13.464844 -24.445312 12.035156 -24.445312 C 11.117188 -24.445312 10.4375 -24.445312 9.65625 -23.898438 C 7.070312 -22.167969 2.003906 -6.59375 2.003906 -3.265625 C 2.003906 -0.511719 3.671875 -0.644531 5.847656 -0.644531 Z M 11.761719 -9.925781 C 10.980469 -9.925781 10.265625 -10.097656 10.265625 -11.015625 C 10.265625 -11.761719 11.289062 -16.929688 11.96875 -16.929688 C 12.78125 -16.929688 13.667969 -11.832031 13.667969 -11.050781 C 13.667969 -10.335938 13.15625 -9.925781 12.476562 -9.925781 Z M 11.761719 -9.925781 "/></g></g></g><g fill="#37545b" fill-opacity="1"><g transform="translate(121.362826, 251.268178)"><g><path d="M 10.710938 -24.683594 C 9.316406 -24.683594 5.710938 -24.582031 4.554688 -23.898438 C 2.242188 -22.539062 2.242188 -15.535156 2.242188 -13.121094 C 2.242188 -10.371094 1.902344 -1.871094 5.066406 -0.714844 C 6.730469 -0.101562 8.941406 -0.101562 10.710938 -0.101562 C 17.578125 -0.101562 23.1875 -5.507812 23.1875 -12.441406 C 23.1875 -19.515625 17.710938 -24.683594 10.710938 -24.683594 Z M 16.558594 -12.953125 C 16.558594 -8.398438 15.367188 -5.203125 10.199219 -5.203125 C 8.875 -5.203125 8.976562 -10.164062 8.976562 -11.117188 C 8.976562 -13.226562 9.078125 -15.367188 9.078125 -17.476562 C 9.078125 -17.816406 9.113281 -18.121094 9.214844 -18.460938 C 9.417969 -19.140625 9.6875 -19.582031 10.472656 -19.582031 C 14.789062 -19.582031 16.558594 -17.066406 16.558594 -12.953125 Z M 16.558594 -12.953125 "/></g></g></g><g fill="#37545b" fill-opacity="1"><g transform="translate(143.494095, 251.268178)"><g><path d="M 5.847656 -0.644531 C 10.640625 -0.644531 5.746094 -5.03125 11.558594 -5.03125 C 18.628906 -5.03125 13.496094 -0.613281 17.542969 -0.613281 C 19.207031 -0.613281 22.097656 -0.613281 22.097656 -2.957031 C 22.097656 -6.289062 17.304688 -20.570312 15.230469 -23.117188 C 14.277344 -24.273438 13.464844 -24.445312 12.035156 -24.445312 C 11.117188 -24.445312 10.4375 -24.445312 9.65625 -23.898438 C 7.070312 -22.167969 2.003906 -6.59375 2.003906 -3.265625 C 2.003906 -0.511719 3.671875 -0.644531 5.847656 -0.644531 Z M 11.761719 -9.925781 C 10.980469 -9.925781 10.265625 -10.097656 10.265625 -11.015625 C 10.265625 -11.761719 11.289062 -16.929688 11.96875 -16.929688 C 12.78125 -16.929688 13.667969 -11.832031 13.667969 -11.050781 C 13.667969 -10.335938 13.15625 -9.925781 12.476562 -9.925781 Z M 11.761719 -9.925781 "/></g></g></g><g fill="#37545b" fill-opacity="1"><g transform="translate(165.795341, 251.268178)"><g><path d="M 13.804688 -5.304688 C 9.65625 -5.304688 7.851562 -8.875 7.851562 -12.578125 C 7.851562 -16.082031 9.621094 -19.414062 13.496094 -19.414062 C 15.332031 -19.414062 17.03125 -18.628906 18.867188 -18.628906 C 19.546875 -18.628906 19.652344 -19.039062 19.652344 -19.617188 C 19.652344 -20.671875 19.683594 -22.335938 18.9375 -23.152344 C 18.085938 -24.105469 15.128906 -24.582031 13.871094 -24.648438 C 13.292969 -24.683594 12.714844 -24.683594 12.136719 -24.683594 C 5.335938 -24.683594 0.746094 -18.9375 0.746094 -12.410156 C 0.746094 -5.644531 5.472656 -0.101562 12.441406 -0.101562 C 14.007812 -0.101562 18.085938 -0.441406 19.207031 -1.5625 C 19.886719 -2.242188 19.957031 -4.113281 19.957031 -5.03125 C 19.957031 -5.882812 19.515625 -6.085938 18.734375 -6.085938 C 17.03125 -6.085938 15.46875 -5.304688 13.804688 -5.304688 Z M 13.804688 -5.304688 "/></g></g></g><g fill="#37545b" fill-opacity="1"><g transform="translate(186.396787, 251.268178)"><g><path d="M 9.382812 -12.648438 C 9.382812 -13.226562 9.453125 -13.804688 9.484375 -14.382812 C 9.554688 -15.605469 9.621094 -16.828125 9.621094 -18.050781 C 9.621094 -19.820312 9.519531 -24.273438 7.003906 -24.273438 C 5.472656 -24.273438 4.148438 -24.105469 3.332031 -22.640625 C 2.3125 -20.804688 2.277344 -14.074219 2.277344 -11.761719 C 2.277344 -9.960938 2.3125 -8.125 2.449219 -6.324219 C 2.550781 -5.101562 2.820312 -3.875 3.535156 -2.855469 C 5.542969 0.0664062 11.289062 -0.40625 14.414062 -0.40625 C 15.875 -0.40625 17.609375 -0.714844 18.664062 -1.835938 C 19.277344 -2.480469 19.414062 -3.433594 19.414062 -4.316406 C 19.414062 -5.371094 18.867188 -5.914062 17.816406 -5.914062 C 16.285156 -5.914062 14.753906 -5.847656 13.191406 -5.847656 C 12.476562 -5.847656 11.730469 -5.914062 11.082031 -6.253906 C 9.28125 -7.207031 9.382812 -10.914062 9.382812 -12.648438 Z M 9.382812 -12.648438 "/></g></g></g><g fill="#37545b" fill-opacity="1"><g transform="translate(205.808363, 251.268178)"><g><path d="M 12.511719 -24.714844 C 5.746094 -24.714844 0.714844 -19.039062 0.714844 -12.410156 C 0.714844 -5.335938 6.121094 -0.0664062 13.15625 -0.0664062 C 19.855469 -0.0664062 25.089844 -5.847656 25.089844 -12.410156 C 25.089844 -19.582031 19.582031 -24.714844 12.511719 -24.714844 Z M 13.191406 -5.507812 C 9.484375 -5.507812 7.785156 -8.261719 7.785156 -11.695312 C 7.785156 -15.164062 8.601562 -19.277344 12.886719 -19.277344 C 17.269531 -19.277344 17.984375 -15.195312 17.984375 -11.695312 C 17.984375 -8.839844 16.453125 -5.507812 13.191406 -5.507812 Z M 13.191406 -5.507812 "/></g></g></g><g fill="#37545b" fill-opacity="1"><g transform="translate(229.809426, 251.268178)"><g><path d="M 6.628906 -24.238281 C 5.507812 -24.238281 3.839844 -24.070312 3.09375 -23.085938 C 1.972656 -21.589844 1.902344 -15.195312 1.902344 -13.15625 C 1.902344 -11.898438 1.9375 -10.675781 1.9375 -9.417969 C 2.003906 -3.707031 6.460938 -0.0351562 12 -0.0351562 C 15.910156 -0.0351562 19.617188 -1.972656 21.316406 -5.574219 C 21.894531 -6.800781 22.132812 -8.125 22.132812 -9.453125 C 22.132812 -11.21875 22.167969 -12.988281 22.167969 -14.753906 C 22.167969 -16.523438 22.097656 -22.234375 20.671875 -23.390625 C 19.71875 -24.171875 18.527344 -24.171875 17.339844 -24.171875 C 14.855469 -24.171875 15.164062 -21.828125 15.164062 -20.058594 C 15.164062 -16.351562 15.265625 -12.679688 15.265625 -8.976562 C 15.265625 -6.59375 14.449219 -5.304688 11.933594 -5.304688 C 9.316406 -5.304688 8.941406 -7.277344 8.941406 -9.453125 C 8.941406 -12 9.179688 -14.515625 9.179688 -17.066406 C 9.179688 -18.9375 9.144531 -20.839844 8.804688 -22.675781 C 8.703125 -23.1875 8.535156 -23.664062 8.089844 -23.933594 C 7.683594 -24.171875 7.105469 -24.238281 6.628906 -24.238281 Z M 6.628906 -24.238281 "/></g></g></g><g fill="#37545b" fill-opacity="1"><g transform="translate(252.110675, 251.268178)"><g><path d="M 10.710938 -24.683594 C 9.316406 -24.683594 5.710938 -24.582031 4.554688 -23.898438 C 2.242188 -22.539062 2.242188 -15.535156 2.242188 -13.121094 C 2.242188 -10.371094 1.902344 -1.871094 5.066406 -0.714844 C 6.730469 -0.101562 8.941406 -0.101562 10.710938 -0.101562 C 17.578125 -0.101562 23.1875 -5.507812 23.1875 -12.441406 C 23.1875 -19.515625 17.710938 -24.683594 10.710938 -24.683594 Z M 16.558594 -12.953125 C 16.558594 -8.398438 15.367188 -5.203125 10.199219 -5.203125 C 8.875 -5.203125 8.976562 -10.164062 8.976562 -11.117188 C 8.976562 -13.226562 9.078125 -15.367188 9.078125 -17.476562 C 9.078125 -17.816406 9.113281 -18.121094 9.214844 -18.460938 C 9.417969 -19.140625 9.6875 -19.582031 10.472656 -19.582031 C 14.789062 -19.582031 16.558594 -17.066406 16.558594 -12.953125 Z M 16.558594 -12.953125 "/></g></g></g><g fill="#37545b" fill-opacity="1"><g transform="translate(139.612572, 274.512961)"><g><path d="M 1.375 0 C 1.28125 0 1.195312 -0.03125 1.125 -0.09375 C 1.0625 -0.164062 1.03125 -0.25 1.03125 -0.34375 L 1.03125 -9.453125 C 1.03125 -9.554688 1.0625 -9.640625 1.125 -9.703125 C 1.195312 -9.765625 1.28125 -9.796875 1.375 -9.796875 L 2.90625 -9.796875 C 3.007812 -9.796875 3.09375 -9.765625 3.15625 -9.703125 C 3.226562 -9.640625 3.265625 -9.554688 3.265625 -9.453125 L 3.265625 -5.953125 L 7.0625 -5.953125 L 7.0625 -9.453125 C 7.0625 -9.554688 7.09375 -9.640625 7.15625 -9.703125 C 7.21875 -9.765625 7.296875 -9.796875 7.390625 -9.796875 L 8.9375 -9.796875 C 9.039062 -9.796875 9.125 -9.765625 9.1875 -9.703125 C 9.25 -9.640625 9.28125 -9.554688 9.28125 -9.453125 L 9.28125 -0.34375 C 9.28125 -0.25 9.25 -0.164062 9.1875 -0.09375 C 9.125 -0.03125 9.039062 0 8.9375 0 L 7.390625 0 C 7.296875 0 7.21875 -0.03125 7.15625 -0.09375 C 7.09375 -0.164062 7.0625 -0.25 7.0625 -0.34375 L 7.0625 -3.96875 L 3.265625 -3.96875 L 3.265625 -0.34375 C 3.265625 -0.25 3.226562 -0.164062 3.15625 -0.09375 C 3.09375 -0.03125 3.007812 0 2.90625 0 Z M 1.375 0 "/></g></g></g><g fill="#37545b" fill-opacity="1"><g transform="translate(155.52483, 274.512961)"><g><path d="M 4.921875 0.140625 C 4.078125 0.140625 3.347656 0 2.734375 -0.28125 C 2.117188 -0.5625 1.632812 -0.984375 1.28125 -1.546875 C 0.9375 -2.109375 0.753906 -2.820312 0.734375 -3.6875 C 0.722656 -4.082031 0.71875 -4.476562 0.71875 -4.875 C 0.71875 -5.269531 0.722656 -5.675781 0.734375 -6.09375 C 0.753906 -6.925781 0.9375 -7.628906 1.28125 -8.203125 C 1.632812 -8.785156 2.125 -9.21875 2.75 -9.5 C 3.375 -9.789062 4.097656 -9.9375 4.921875 -9.9375 C 5.742188 -9.9375 6.460938 -9.789062 7.078125 -9.5 C 7.703125 -9.21875 8.191406 -8.785156 8.546875 -8.203125 C 8.910156 -7.628906 9.101562 -6.925781 9.125 -6.09375 C 9.144531 -5.675781 9.15625 -5.269531 9.15625 -4.875 C 9.15625 -4.476562 9.144531 -4.082031 9.125 -3.6875 C 9.101562 -2.820312 8.914062 -2.109375 8.5625 -1.546875 C 8.207031 -0.984375 7.722656 -0.5625 7.109375 -0.28125 C 6.492188 0 5.765625 0.140625 4.921875 0.140625 Z M 4.921875 -1.6875 C 5.460938 -1.6875 5.910156 -1.847656 6.265625 -2.171875 C 6.617188 -2.492188 6.800781 -3.019531 6.8125 -3.75 C 6.832031 -4.164062 6.84375 -4.550781 6.84375 -4.90625 C 6.84375 -5.269531 6.832031 -5.648438 6.8125 -6.046875 C 6.800781 -6.535156 6.710938 -6.929688 6.546875 -7.234375 C 6.378906 -7.546875 6.15625 -7.769531 5.875 -7.90625 C 5.601562 -8.050781 5.285156 -8.125 4.921875 -8.125 C 4.566406 -8.125 4.25 -8.050781 3.96875 -7.90625 C 3.695312 -7.769531 3.472656 -7.546875 3.296875 -7.234375 C 3.128906 -6.929688 3.039062 -6.535156 3.03125 -6.046875 C 3.019531 -5.648438 3.015625 -5.269531 3.015625 -4.90625 C 3.015625 -4.550781 3.019531 -4.164062 3.03125 -3.75 C 3.050781 -3.019531 3.234375 -2.492188 3.578125 -2.171875 C 3.929688 -1.847656 4.378906 -1.6875 4.921875 -1.6875 Z M 4.921875 -1.6875 "/></g></g></g><g fill="#37545b" fill-opacity="1"><g transform="translate(170.961345, 274.512961)"><g><path d="M 4.5625 0.140625 C 3.664062 0.140625 2.914062 0.0078125 2.3125 -0.25 C 1.707031 -0.507812 1.25 -0.847656 0.9375 -1.265625 C 0.632812 -1.691406 0.476562 -2.144531 0.46875 -2.625 C 0.46875 -2.707031 0.492188 -2.773438 0.546875 -2.828125 C 0.597656 -2.878906 0.664062 -2.90625 0.75 -2.90625 L 2.265625 -2.90625 C 2.390625 -2.90625 2.484375 -2.878906 2.546875 -2.828125 C 2.609375 -2.785156 2.671875 -2.726562 2.734375 -2.65625 C 2.796875 -2.488281 2.898438 -2.328125 3.046875 -2.171875 C 3.191406 -2.023438 3.382812 -1.90625 3.625 -1.8125 C 3.875 -1.726562 4.1875 -1.6875 4.5625 -1.6875 C 5.164062 -1.6875 5.617188 -1.78125 5.921875 -1.96875 C 6.234375 -2.164062 6.390625 -2.429688 6.390625 -2.765625 C 6.390625 -3.003906 6.304688 -3.195312 6.140625 -3.34375 C 5.972656 -3.488281 5.710938 -3.625 5.359375 -3.75 C 5.015625 -3.875 4.550781 -4 3.96875 -4.125 C 3.269531 -4.289062 2.675781 -4.488281 2.1875 -4.71875 C 1.695312 -4.957031 1.328125 -5.265625 1.078125 -5.640625 C 0.835938 -6.023438 0.71875 -6.5 0.71875 -7.0625 C 0.71875 -7.613281 0.867188 -8.109375 1.171875 -8.546875 C 1.484375 -8.984375 1.914062 -9.320312 2.46875 -9.5625 C 3.03125 -9.8125 3.703125 -9.9375 4.484375 -9.9375 C 5.109375 -9.9375 5.660156 -9.851562 6.140625 -9.6875 C 6.617188 -9.519531 7.019531 -9.300781 7.34375 -9.03125 C 7.664062 -8.757812 7.910156 -8.46875 8.078125 -8.15625 C 8.242188 -7.851562 8.332031 -7.554688 8.34375 -7.265625 C 8.34375 -7.179688 8.316406 -7.109375 8.265625 -7.046875 C 8.210938 -6.984375 8.140625 -6.953125 8.046875 -6.953125 L 6.484375 -6.953125 C 6.390625 -6.953125 6.304688 -6.96875 6.234375 -7 C 6.160156 -7.039062 6.09375 -7.109375 6.03125 -7.203125 C 5.988281 -7.460938 5.828125 -7.679688 5.546875 -7.859375 C 5.273438 -8.035156 4.921875 -8.125 4.484375 -8.125 C 4.023438 -8.125 3.660156 -8.039062 3.390625 -7.875 C 3.128906 -7.707031 3 -7.453125 3 -7.109375 C 3 -6.890625 3.066406 -6.703125 3.203125 -6.546875 C 3.347656 -6.390625 3.578125 -6.253906 3.890625 -6.140625 C 4.210938 -6.023438 4.644531 -5.898438 5.1875 -5.765625 C 5.988281 -5.597656 6.644531 -5.394531 7.15625 -5.15625 C 7.675781 -4.914062 8.054688 -4.613281 8.296875 -4.25 C 8.546875 -3.882812 8.671875 -3.421875 8.671875 -2.859375 C 8.671875 -2.234375 8.492188 -1.695312 8.140625 -1.25 C 7.796875 -0.800781 7.316406 -0.457031 6.703125 -0.21875 C 6.085938 0.0195312 5.375 0.140625 4.5625 0.140625 Z M 4.5625 0.140625 "/></g></g></g><g fill="#37545b" fill-opacity="1"><g transform="translate(185.684263, 274.512961)"><g><path d="M 3.546875 0 C 3.441406 0 3.351562 -0.03125 3.28125 -0.09375 C 3.21875 -0.164062 3.1875 -0.25 3.1875 -0.34375 L 3.1875 -7.84375 L 0.640625 -7.84375 C 0.546875 -7.84375 0.46875 -7.875 0.40625 -7.9375 C 0.34375 -8 0.3125 -8.082031 0.3125 -8.1875 L 0.3125 -9.453125 C 0.3125 -9.554688 0.34375 -9.640625 0.40625 -9.703125 C 0.46875 -9.765625 0.546875 -9.796875 0.640625 -9.796875 L 7.984375 -9.796875 C 8.085938 -9.796875 8.171875 -9.765625 8.234375 -9.703125 C 8.296875 -9.640625 8.328125 -9.554688 8.328125 -9.453125 L 8.328125 -8.1875 C 8.328125 -8.082031 8.296875 -8 8.234375 -7.9375 C 8.171875 -7.875 8.085938 -7.84375 7.984375 -7.84375 L 5.453125 -7.84375 L 5.453125 -0.34375 C 5.453125 -0.25 5.414062 -0.164062 5.34375 -0.09375 C 5.28125 -0.03125 5.195312 0 5.09375 0 Z M 3.546875 0 "/></g></g></g><g fill="#37545b" fill-opacity="1"><g transform="translate(199.917456, 274.512961)"><g><path d="M 1.375 0 C 1.28125 0 1.195312 -0.03125 1.125 -0.09375 C 1.0625 -0.164062 1.03125 -0.25 1.03125 -0.34375 L 1.03125 -9.453125 C 1.03125 -9.554688 1.0625 -9.640625 1.125 -9.703125 C 1.195312 -9.765625 1.28125 -9.796875 1.375 -9.796875 L 2.984375 -9.796875 C 3.078125 -9.796875 3.15625 -9.765625 3.21875 -9.703125 C 3.28125 -9.640625 3.3125 -9.554688 3.3125 -9.453125 L 3.3125 -0.34375 C 3.3125 -0.25 3.28125 -0.164062 3.21875 -0.09375 C 3.15625 -0.03125 3.078125 0 2.984375 0 Z M 1.375 0 "/></g></g></g><g fill="#37545b" fill-opacity="1"><g transform="translate(209.869037, 274.512961)"><g><path d="M 1.375 0 C 1.28125 0 1.195312 -0.03125 1.125 -0.09375 C 1.0625 -0.164062 1.03125 -0.25 1.03125 -0.34375 L 1.03125 -9.453125 C 1.03125 -9.554688 1.0625 -9.640625 1.125 -9.703125 C 1.195312 -9.765625 1.28125 -9.796875 1.375 -9.796875 L 2.65625 -9.796875 C 2.800781 -9.796875 2.90625 -9.765625 2.96875 -9.703125 C 3.03125 -9.640625 3.070312 -9.585938 3.09375 -9.546875 L 6.8125 -3.71875 L 6.8125 -9.453125 C 6.8125 -9.554688 6.84375 -9.640625 6.90625 -9.703125 C 6.976562 -9.765625 7.066406 -9.796875 7.171875 -9.796875 L 8.59375 -9.796875 C 8.695312 -9.796875 8.78125 -9.765625 8.84375 -9.703125 C 8.914062 -9.640625 8.953125 -9.554688 8.953125 -9.453125 L 8.953125 -0.34375 C 8.953125 -0.25 8.914062 -0.164062 8.84375 -0.09375 C 8.78125 -0.03125 8.695312 0 8.59375 0 L 7.3125 0 C 7.164062 0 7.0625 -0.03125 7 -0.09375 C 6.9375 -0.164062 6.894531 -0.21875 6.875 -0.25 L 3.15625 -5.890625 L 3.15625 -0.34375 C 3.15625 -0.25 3.125 -0.164062 3.0625 -0.09375 C 3 -0.03125 2.914062 0 2.8125 0 Z M 1.375 0 "/></g></g></g><g fill="#37545b" fill-opacity="1"><g transform="translate(225.445481, 274.512961)"><g><path d="M 4.96875 0.140625 C 4.09375 0.140625 3.34375 -0.00390625 2.71875 -0.296875 C 2.101562 -0.585938 1.625 -1.015625 1.28125 -1.578125 C 0.9375 -2.148438 0.753906 -2.835938 0.734375 -3.640625 C 0.722656 -4.035156 0.71875 -4.460938 0.71875 -4.921875 C 0.71875 -5.378906 0.722656 -5.816406 0.734375 -6.234375 C 0.753906 -7.015625 0.9375 -7.679688 1.28125 -8.234375 C 1.625 -8.785156 2.109375 -9.207031 2.734375 -9.5 C 3.367188 -9.789062 4.113281 -9.9375 4.96875 -9.9375 C 5.65625 -9.9375 6.257812 -9.847656 6.78125 -9.671875 C 7.3125 -9.492188 7.753906 -9.257812 8.109375 -8.96875 C 8.472656 -8.6875 8.742188 -8.378906 8.921875 -8.046875 C 9.109375 -7.710938 9.207031 -7.382812 9.21875 -7.0625 C 9.21875 -6.976562 9.1875 -6.910156 9.125 -6.859375 C 9.070312 -6.804688 9 -6.78125 8.90625 -6.78125 L 7.171875 -6.78125 C 7.078125 -6.78125 7.003906 -6.796875 6.953125 -6.828125 C 6.898438 -6.867188 6.851562 -6.925781 6.8125 -7 C 6.75 -7.15625 6.644531 -7.320312 6.5 -7.5 C 6.351562 -7.675781 6.160156 -7.820312 5.921875 -7.9375 C 5.679688 -8.0625 5.363281 -8.125 4.96875 -8.125 C 4.382812 -8.125 3.921875 -7.96875 3.578125 -7.65625 C 3.234375 -7.351562 3.050781 -6.851562 3.03125 -6.15625 C 3 -5.351562 3 -4.535156 3.03125 -3.703125 C 3.050781 -2.984375 3.238281 -2.46875 3.59375 -2.15625 C 3.945312 -1.84375 4.414062 -1.6875 5 -1.6875 C 5.382812 -1.6875 5.726562 -1.753906 6.03125 -1.890625 C 6.332031 -2.023438 6.570312 -2.234375 6.75 -2.515625 C 6.925781 -2.796875 7.015625 -3.160156 7.015625 -3.609375 L 7.015625 -3.96875 L 5.484375 -3.96875 C 5.390625 -3.96875 5.3125 -4 5.25 -4.0625 C 5.1875 -4.132812 5.15625 -4.21875 5.15625 -4.3125 L 5.15625 -5.203125 C 5.15625 -5.304688 5.1875 -5.390625 5.25 -5.453125 C 5.3125 -5.523438 5.390625 -5.5625 5.484375 -5.5625 L 8.9375 -5.5625 C 9.039062 -5.5625 9.125 -5.523438 9.1875 -5.453125 C 9.25 -5.390625 9.28125 -5.304688 9.28125 -5.203125 L 9.28125 -3.6875 C 9.28125 -2.882812 9.101562 -2.195312 8.75 -1.625 C 8.394531 -1.050781 7.890625 -0.613281 7.234375 -0.3125 C 6.585938 -0.0078125 5.832031 0.140625 4.96875 0.140625 Z M 4.96875 0.140625 "/></g></g></g></svg>